<?xml version="1.0" encoding="UTF-8"?><svg xmlns="http://www.w3.org/2000/svg" width="1000" height="250" xmlns:xlink="http://www.w3.org/1999/xlink" viewBox="0 0 1000 250"><defs><style>.cv{fill:url(#be);}.cw{fill:url(#t);}.cx{fill:url(#bu);}.cy{fill:url(#bq);}.d`{fill:#fff;}.da{fill:#a571ea;}.db{fill:url(#ca);}.dc{fill:url(#ap);}.dd{fill:url(#r);}.de{fill:url(#bk);}.df{fill:url(#ai);}.dg{fill:url(#ch);}.dh{fill:url(#y);}.di{fill:url(#l);}.dj{fill:url(#bl);}.dk{fill:url(#cm);}.dl{fill:url(#bp);}.dm{fill:url(#af);}.dn{fill:#271d82;}.do{fill:url(#c);}.dp{fill:url(#br);}.dq{fill:url(#aq);}.dr{fill:url(#u);}.ds{fill:#f9b50b;}.dt{fill:url(#ah);}.du{fill:url(#b`);}.dv{fill:url(#v);}.dw{fill:url(#ck);}.dx{fill:url(#av);}.dy{fill:url(#a`);}.e`{fill:url(#as);}.ea{fill:url(#m);}.eb{fill:#02092d;}.ec{fill:#433ab5;}.ed{fill:url(#bh);}.ee{fill:url(#aw);}.ef{fill:url(#bm);}.eg{fill:url(#ba);}.eh{fill:url(#ao);}.ei{fill:url(#bj);}.ej{fill:url(#bd);}.ek{fill:url(#ce);}.el{fill:url(#f);}.em{fill:url(#bg);}.en{fill:url(#ae);}.eo{fill:url(#bi);}.ep{fill:url(#bo);}.eq{fill:url(#p);}.er{fill:url(#g);}.es{fill:url(#bb);}.et{fill:url(#ad);}.eu{fill:url(#ab);}.ev{fill:url(#cb);}.ew{fill:url(#ak);}.ex{fill:url(#cg);}.ey{fill:url(#au);}.f`{fill:#2c1d77;}.fa{fill:url(#b);}.fb{fill:url(#bf);}.fc{fill:url(#c`);}.fd{fill:url(#cf);}.fe{fill:url(#i);}.ff{fill:url(#bc);}.fg{fill:url(#aj);}.fh{fill:url(#ci);}.fi{fill:url(#ar);}.fj{fill:url(#bv);}.fk{fill:url(#h);}.fl{fill:url(#cn);}.fm{fill:url(#d);}.fn{fill:url(#e);}.fo{fill:url(#by);}.fp{fill:#ffef1f;}.fq{fill:url(#am);}.fr{fill:#ffe783;}.fs{fill:url(#bw);}.ft{fill:url(#co);}.fu{fill:url(#x);}.fv{fill:url(#at);}.fw{fill:url(#aa);}.fx{fill:url(#s);}.fy{fill:#3e3293;}.g`{fill:url(#bx);}.ga{fill:#e6e4f2;}.gb{fill:url(#bn);}.gc{fill:url(#n);}.gd{fill:url(#ac);}.ge{fill:url(#cs);}.gf{fill:url(#cj);}.gg{fill:url(#cc);}.gh{fill:url(#w);}.gi{fill:#110e4c;}.gj{fill:url(#al);}.gk{fill:url(#cp);}.gl{fill:url(#j);}.gm{fill:url(#cl);}.gn{fill:url(#o);}.go{fill:url(#an);}.gp{fill:url(#bt);}.gq{fill:url(#ax);}.gr{fill:url(#q);}.gs{fill:url(#ag);}.gt{fill:url(#cr);}.gu{fill:url(#ay);}.gv{fill:url(#k);}.gw{fill:url(#bs);}.gx{fill:url(#cd);}.gy{fill:url(#cq);}.h`{fill:url(#ct);}</style><linearGradient id="b" x1="500" y1="206.01" x2="500" y2="5.46" gradientTransform="matrix(1, 0, 0, 1, 0, 0)" gradientUnits="userSpaceOnUse"><stop offset=".15" stop-color="#1c1884"/><stop offset=".41" stop-color="#1b1781"/><stop offset=".56" stop-color="#191579"/><stop offset=".68" stop-color="#15116b"/><stop offset=".79" stop-color="#0f0c57"/><stop offset=".89" stop-color="#09063d"/><stop offset=".97" stop-color="#020024"/></linearGradient><linearGradient id="c" x1="500" y1="251.66" x2="500" y2="198.86" xlink:href="#b"/><linearGradient id="d" x1="741.37" y1="168.03" x2="741.37" y2="7.2" gradientTransform="matrix(1, 0, 0, 1, 0, 0)" gradientUnits="userSpaceOnUse"><stop offset=".11" stop-color="#523cc6"/><stop offset=".26" stop-color="#3d2e9e"/><stop offset=".47" stop-color="#241e6e"/><stop offset=".66" stop-color="#11124a"/><stop offset=".81" stop-color="#060b34"/><stop offset=".91" stop-color="#02092d"/></linearGradient><linearGradient id="e" x1="741.92" y1="58.23" x2="741.92" y2="55.39" xlink:href="#d"/><linearGradient id="f" x1="742.2" y1="60.32" x2="742.2" y2="59.22" xlink:href="#d"/><linearGradient id="g" x1="742.2" y1="52.94" x2="742.2" y2="51.84" xlink:href="#d"/><linearGradient id="h" x1="742.2" y1="207.74" x2="742.2" y2="199.5" xlink:href="#d"/><linearGradient id="i" x1="742.2" y1="190.76" x2="742.2" y2="189.66" xlink:href="#d"/><linearGradient id="j" x1="2028.23" y1="131.85" x2="2070.82" y2="131.85" gradientTransform="translate(2743.59) rotate(-180) scale(1 -1)" xlink:href="#d"/><linearGradient id="k" x1="2040.58" y1="77.07" x2="2040.58" y2="65.5" gradientTransform="translate(2743.59) rotate(-180) scale(1 -1)" xlink:href="#d"/><linearGradient id="l" x1="2040.62" y1="79.16" x2="2040.62" y2="69.33" gradientTransform="translate(2743.59) rotate(-180) scale(1 -1)" xlink:href="#d"/><linearGradient id="m" x1="2040.62" y1="71.79" x2="2040.62" y2="61.95" gradientTransform="translate(2743.59) rotate(-180) scale(1 -1)" xlink:href="#d"/><linearGradient id="n" x1="2042.1" y1="207.32" x2="2040.19" y2="190.43" gradientTransform="translate(2743.59) rotate(-180) scale(1 -1)" xlink:href="#d"/><linearGradient id="o" x1="2040.62" y1="190.51" x2="2040.62" y2="185.04" gradientTransform="translate(2743.59) rotate(-180) scale(1 -1)" xlink:href="#d"/><linearGradient id="p" x1="2360.59" y1="172.83" x2="2360.59" y2="29.95" gradientTransform="translate(-1623.25 281.37) scale(1 -1)" xlink:href="#d"/><linearGradient id="q" x1="2361.25" y1="76.12" x2="2361.25" y2="72.74" gradientTransform="translate(-1624.57 145.14) scale(1 -1)" xlink:href="#d"/><linearGradient id="r" x1="2361.57" y1="78.61" x2="2361.57" y2="77.29" gradientTransform="translate(-1625.22 154.46) scale(1 -1)" xlink:href="#d"/><linearGradient id="s" x1="2361.57" y1="69.83" x2="2361.57" y2="68.52" gradientTransform="translate(-1625.22 136.9) scale(1 -1)" xlink:href="#d"/><linearGradient id="t" x1="2361.57" y1="207.97" x2="2361.57" y2="198.15" gradientTransform="translate(-1625.22 395.32) scale(1 -1)" xlink:href="#d"/><linearGradient id="u" x1="2361.57" y1="187.76" x2="2361.57" y2="186.45" gradientTransform="translate(-1625.22 372.77) scale(1 -1)" xlink:href="#d"/><linearGradient id="v" x1="409.97" y1="140.69" x2="460.64" y2="140.69" gradientTransform="translate(354.34)" xlink:href="#d"/><linearGradient id="w" x1="424.66" y1="87.33" x2="424.66" y2="78.76" gradientTransform="translate(354.34)" xlink:href="#d"/><linearGradient id="x" x1="424.71" y1="89.82" x2="424.71" y2="83.31" gradientTransform="translate(354.34)" xlink:href="#d"/><linearGradient id="y" x1="424.71" y1="81.04" x2="424.71" y2="74.53" gradientTransform="translate(354.34)" xlink:href="#d"/><linearGradient id="a`" x1="426.47" y1="207.47" x2="424.2" y2="187.36" gradientTransform="translate(354.34)" xlink:href="#d"/><linearGradient id="aa" x1="424.71" y1="187.46" x2="424.71" y2="180.96" gradientTransform="translate(354.34)" xlink:href="#d"/><linearGradient id="ab" x1="536.67" y1="197.76" x2="536.67" y2="86.5" gradientTransform="translate(56 345.47) scale(1 -1)" xlink:href="#d"/><linearGradient id="ac" x1="537.44" y1="122.45" x2="537.44" y2="119.82" gradientTransform="translate(54.46 239.37) scale(1 -1)" xlink:href="#d"/><linearGradient id="ad" x1="537.44" y1="124.39" x2="537.44" y2="123.36" gradientTransform="translate(54.46 246.62) scale(1 -1)" xlink:href="#d"/><linearGradient id="ae" x1="537.44" y1="117.55" x2="537.44" y2="116.53" gradientTransform="translate(54.46 232.95) scale(1 -1)" xlink:href="#d"/><linearGradient id="af" x1="537.44" y1="133.18" x2="537.44" y2="132.16" gradientTransform="translate(54.46 264.22) scale(1 -1)" xlink:href="#d"/><linearGradient id="ag" x1="537.44" y1="225.27" x2="537.44" y2="217.56" gradientTransform="translate(54.46 434.35) scale(1 -1)" xlink:href="#d"/><linearGradient id="ah" x1="537.44" y1="209.39" x2="537.44" y2="208.37" gradientTransform="translate(54.46 416.64) scale(1 -1)" xlink:href="#d"/><linearGradient id="ai" x1="885.87" y1="197.76" x2="885.87" y2="86.5" xlink:href="#d"/><linearGradient id="aj" x1="886.64" y1="122.45" x2="886.64" y2="119.82" xlink:href="#d"/><linearGradient id="ak" x1="886.64" y1="124.39" x2="886.64" y2="123.36" xlink:href="#d"/><linearGradient id="al" x1="886.64" y1="117.55" x2="886.64" y2="116.53" xlink:href="#d"/><linearGradient id="am" x1="886.64" y1="133.18" x2="886.64" y2="132.16" xlink:href="#d"/><linearGradient id="an" x1="886.64" y1="225.27" x2="886.64" y2="217.56" xlink:href="#d"/><linearGradient id="ao" x1="886.64" y1="209.39" x2="886.64" y2="208.37" xlink:href="#d"/><linearGradient id="ap" x1="435.77" y1="126.13" x2="435.77" y2="70.36" gradientTransform="translate(257.8 227.17) scale(1 -1)" xlink:href="#d"/><linearGradient id="aq" x1="437.86" y1="89.18" x2="437.86" y2="87.04" gradientTransform="translate(253.62 173.86) scale(1 -1)" xlink:href="#d"/><linearGradient id="ar" x1="437.86" y1="90.76" x2="437.86" y2="89.93" gradientTransform="translate(253.62 179.78) scale(1 -1)" xlink:href="#d"/><linearGradient id="as" x1="437.86" y1="85.19" x2="437.86" y2="84.35" gradientTransform="translate(253.62 168.62) scale(1 -1)" xlink:href="#d"/><linearGradient id="at" x1="437.86" y1="97.94" x2="437.86" y2="97.1" gradientTransform="translate(253.62 194.13) scale(1 -1)" xlink:href="#d"/><radialGradient id="au" cx="480.93" cy="63.28" fx="480.93" fy="63.28" r="13.32" gradientTransform="translate(1129.34) rotate(-180) scale(1 -1)" gradientUnits="userSpaceOnUse"><stop offset=".11" stop-color="#523cc6"/><stop offset=".26" stop-color="#3d2e9e"/><stop offset=".47" stop-color="#241e6e"/><stop offset=".66" stop-color="#11124a"/><stop offset=".81" stop-color="#060b34"/><stop offset=".91" stop-color="#02092d"/></radialGradient><linearGradient id="av" x1="478.54" y1="138.54" x2="478.54" y2="112.08" gradientTransform="translate(172.26 221.49) scale(1 -1)" xlink:href="#d"/><linearGradient id="aw" x1="478.54" y1="80.08" x2="478.54" y2="77.17" gradientTransform="translate(172.26 154.04) scale(1 -1)" xlink:href="#d"/><linearGradient id="ax" x1="478.54" y1="82.21" x2="478.54" y2="81.09" gradientTransform="translate(172.26 162.06) scale(1 -1)" xlink:href="#d"/><linearGradient id="ay" x1="478.54" y1="74.67" x2="478.54" y2="73.54" gradientTransform="translate(172.26 146.96) scale(1 -1)" xlink:href="#d"/><linearGradient id="b`" x1="517.69" y1="201.09" x2="517.69" y2="158.66" gradientTransform="translate(1129.34) rotate(-180) scale(1 -1)" xlink:href="#d"/><linearGradient id="ba" x1="543.61" y1="201.09" x2="543.61" y2="158.66" gradientTransform="translate(1129.34) rotate(-180) scale(1 -1)" xlink:href="#d"/><linearGradient id="bb" x1="569.53" y1="201.09" x2="569.53" y2="158.66" gradientTransform="translate(1129.34) rotate(-180) scale(1 -1)" xlink:href="#d"/><linearGradient id="bc" x1="595.45" y1="201.09" x2="595.45" y2="158.66" gradientTransform="translate(1129.34) rotate(-180) scale(1 -1)" xlink:href="#d"/><linearGradient id="bd" x1="1428.41" y1="156.44" x2="1543.46" y2="156.44" gradientTransform="translate(-877.22)" xlink:href="#d"/><linearGradient id="be" x1="1289.22" y1="205.85" x2="1289.22" y2="211.26" gradientTransform="translate(-661.12 378.96) scale(1 -1)" gradientUnits="userSpaceOnUse"><stop offset=".14" stop-color="#f7820d"/><stop offset=".85" stop-color="#f4350f"/></linearGradient><linearGradient id="bf" x1="551.2" y1="201.58" x2="570.05" y2="201.58" gradientTransform="translate(1129.34) rotate(-180) scale(1 -1)" gradientUnits="userSpaceOnUse"><stop offset=".05" stop-color="#523cc6"/><stop offset=".07" stop-color="#4c38bc"/><stop offset=".2" stop-color="#312794"/><stop offset=".33" stop-color="#1c1a74"/><stop offset=".45" stop-color="#0d105e"/><stop offset=".57" stop-color="#050a50"/><stop offset=".67" stop-color="#02094c"/><stop offset=".74" stop-color="#040a4f"/><stop offset=".8" stop-color="#0a0e59"/><stop offset=".85" stop-color="#15156a"/><stop offset=".9" stop-color="#251f82"/><stop offset=".95" stop-color="#392ca0"/><stop offset="1" stop-color="#523cc6"/></linearGradient><linearGradient id="bg" x1="560.62" y1="202.39" x2="560.62" y2="206.06" gradientTransform="translate(1129.34 29.38) rotate(-180) scale(1 -1)" xlink:href="#d"/><linearGradient id="bh" x1="560.45" y1="215.69" x2="560.45" y2="218.41" gradientTransform="translate(8.44 433.6) scale(1 -1)" xlink:href="#d"/><linearGradient id="bi" x1="784.97" y1="126.13" x2="784.97" y2="70.36" xlink:href="#d"/><linearGradient id="bj" x1="787.06" y1="89.18" x2="787.06" y2="87.04" xlink:href="#d"/><linearGradient id="bk" x1="787.06" y1="90.76" x2="787.06" y2="89.93" xlink:href="#d"/><linearGradient id="bl" x1="787.06" y1="85.19" x2="787.06" y2="84.35" xlink:href="#d"/><linearGradient id="bm" x1="787.06" y1="97.94" x2="787.06" y2="97.1" xlink:href="#d"/><radialGradient id="bn" cx="830.13" cy="63.28" fx="830.13" fy="63.28" r="13.32" gradientTransform="matrix(1, 0, 0, 1, 0, 0)" xlink:href="#au"/><linearGradient id="bo" x1="827.74" y1="138.54" x2="827.74" y2="112.08" xlink:href="#d"/><linearGradient id="bp" x1="827.74" y1="80.08" x2="827.74" y2="77.17" xlink:href="#d"/><linearGradient id="bq" x1="827.74" y1="82.21" x2="827.74" y2="81.09" xlink:href="#d"/><linearGradient id="br" x1="827.74" y1="74.67" x2="827.74" y2="73.54" xlink:href="#d"/><linearGradient id="bs" x1="1025.42" y1="85.06" x2="1147.73" y2="85.06" gradientTransform="translate(655.04 1208.62) rotate(-90)" xlink:href="#d"/><linearGradient id="bt" x1="598.15" y1="578.53" x2="736.03" y2="578.53" gradientTransform="translate(1318.62 -545.04) rotate(90)" xlink:href="#d"/><linearGradient id="bu" x1="866.89" y1="201.09" x2="866.89" y2="158.66" xlink:href="#d"/><linearGradient id="bv" x1="892.81" y1="201.09" x2="892.81" y2="158.66" xlink:href="#d"/><linearGradient id="bw" x1="918.73" y1="201.09" x2="918.73" y2="158.66" xlink:href="#d"/><linearGradient id="bx" x1="944.65" y1="201.09" x2="944.65" y2="158.66" xlink:href="#d"/><linearGradient id="by" x1="740.09" y1="96.35" x2="740.09" y2="21.04" xlink:href="#d"/><linearGradient id="c`" x1="1079.21" y1="156.44" x2="1194.26" y2="156.44" gradientTransform="translate(-263.69 312.88) scale(1 -1)" xlink:href="#d"/><linearGradient id="ca" x1="1169.94" y1="151.32" x2="1178.92" y2="151.32" gradientTransform="translate(-364.7 302.64) scale(1 -1)" xlink:href="#d"/><linearGradient id="cb" x1="643.79" y1="151.32" x2="652.78" y2="151.32" xlink:href="#d"/><linearGradient id="cc" x1="758.39" y1="91.87" x2="758.39" y2="38.98" xlink:href="#d"/><linearGradient id="cd" x1="33.79" y1="91.87" x2="33.79" y2="38.98" gradientTransform="translate(755.47) rotate(-180) scale(1 -1)" xlink:href="#d"/><linearGradient id="ce" x1="740.09" y1="121.52" x2="740.09" y2="115.94" xlink:href="#d"/><linearGradient id="cf" x1="740.09" y1="121.36" x2="740.09" y2="109.01" xlink:href="#d"/><linearGradient id="cg" x1="740.09" y1="121.25" x2="740.09" y2="98.76" xlink:href="#d"/><linearGradient id="ch" x1="740.09" y1="138.46" x2="740.09" y2="125.73" xlink:href="#d"/><linearGradient id="ci" x1="940.02" y1="205.68" x2="940.02" y2="211.53" gradientTransform="translate(1790.46 378.96) rotate(-180)" xlink:href="#be"/><linearGradient id="cj" x1="1050.37" y1="206.01" x2="1050.37" y2="215.43" gradientTransform="translate(1790.46 378.96) rotate(-180)" xlink:href="#be"/><linearGradient id="ck" x1="787.49" y1="202.39" x2="813.96" y2="202.39" gradientTransform="matrix(1, 0, 0, 1, 0, 0)" xlink:href="#bf"/><linearGradient id="cl" x1="800.72" y1="207.68" x2="800.72" y2="211.35" gradientTransform="translate(0 29.38)" xlink:href="#d"/><linearGradient id="cm" x1="800.48" y1="218.29" x2="800.48" y2="221.01" xlink:href="#d"/><linearGradient id="cn" x1="900.4" y1="201.58" x2="919.25" y2="201.58" gradientTransform="matrix(1, 0, 0, 1, 0, 0)" xlink:href="#bf"/><linearGradient id="co" x1="909.82" y1="202.39" x2="909.82" y2="206.06" gradientTransform="translate(0 29.38)" xlink:href="#d"/><linearGradient id="cp" x1="909.65" y1="215.69" x2="909.65" y2="218.41" xlink:href="#d"/><linearGradient id="cq" x1="740.09" y1="164.66" x2="740.09" y2="145.68" xlink:href="#d"/><linearGradient id="cr" x1="438.29" y1="202.39" x2="464.76" y2="202.39" xlink:href="#bf"/><linearGradient id="cs" x1="451.53" y1="207.68" x2="451.53" y2="211.35" gradientTransform="translate(1129.34 29.38) rotate(-180) scale(1 -1)" xlink:href="#d"/><linearGradient id="ct" x1="451.28" y1="218.29" x2="451.28" y2="221.01" gradientTransform="translate(226.78 438.8) scale(1 -1)" xlink:href="#d"/></defs><g id="a"><rect width="1000" height="199.73" style="fill:url(#b);"/><rect y="197.42" width="1000" height="52.58" style="fill:url(#c);"/><g><circle cx="6.8" cy="33.12" r="1.2" style="fill:#e6e4f2;"/><circle cx="226.98" cy="63.15" r="1.2" style="fill:#e6e4f2;"/><circle cx="943.07" cy="80.37" r="1.2" style="fill:#e6e4f2;"/><circle cx="320.33" cy="40.53" r="1.2" style="fill:#e6e4f2;"/><circle cx="136.91" cy="93.17" r="1.2" style="fill:#e6e4f2;"/><circle cx="660.6" cy="30.52" r="1.2" style="fill:#e6e4f2;"/><circle cx="590.55" cy=".5" r="1.2" style="fill:#e6e4f2;"/><circle cx="750.68" cy="10.51" r="1.2" style="fill:#e6e4f2;"/><circle cx="157.91" cy="28.61" r="1.2" style="fill:#e6e4f2;"/></g><g><circle cx="919.86" cy="64.87" r=".66" style="fill:#e6e4f2;"/><circle cx="816.24" cy="87.89" r=".66" style="fill:#e6e4f2;"/><circle cx="470.18" cy="34.06" r=".66" style="fill:#e6e4f2;"/><circle cx="366.57" cy="91.63" r=".66" style="fill:#e6e4f2;"/><circle cx="285.97" cy="57.09" r=".66" style="fill:#e6e4f2;"/><circle cx="262.95" cy="22.55" r=".66" style="fill:#e6e4f2;"/><circle cx="117.61" cy="59.25" r=".66" style="fill:#e6e4f2;"/><circle cx="71.56" cy="105.3" r=".66" style="fill:#e6e4f2;"/><circle cx="700.45" cy="96.23" r=".66" style="fill:#e6e4f2;"/><circle cx="631.37" cy="73.21" r=".66" style="fill:#e6e4f2;"/><circle cx="550.78" cy="50.18" r=".66" style="fill:#e6e4f2;"/><circle cx="770.19" cy="92.5" r=".66" style="fill:#e6e4f2;"/><circle cx="804.73" cy="23.42" r=".66" style="fill:#e6e4f2;"/><circle cx="60.04" cy="13.2" r=".66" style="fill:#e6e4f2;"/><circle cx="885.32" cy="23.42" r=".66" style="fill:#e6e4f2;"/></g><g><circle cx="978" cy="7.3" r=".35" style="fill:#e6e4f2;"/><circle cx="712.54" cy="11.04" r=".35" style="fill:#e6e4f2;"/><circle cx="620.43" cy="22.55" r=".35" style="fill:#e6e4f2;"/><circle cx="805.3" cy="41.84" r=".35" style="fill:#e6e4f2;"/><circle cx="175.75" cy="54.65" r=".35" style="fill:#e6e4f2;"/><circle cx="424.71" cy="11.04" r=".35" style="fill:#e6e4f2;"/><circle cx="14.57" cy="77.67" r=".35" style="fill:#e6e4f2;"/><circle cx="83.65" cy="43.13" r=".35" style="fill:#e6e4f2;"/><circle cx="378.66" cy="45.57" r=".35" style="fill:#e6e4f2;"/><circle cx="309.58" cy="68.6" r=".35" style="fill:#e6e4f2;"/><circle cx="240.5" cy="57.09" r=".35" style="fill:#e6e4f2;"/><circle cx="666.48" cy="57.09" r=".35" style="fill:#e6e4f2;"/><circle cx="758.59" cy="34.06" r=".35" style="fill:#e6e4f2;"/><circle cx="966.49" cy="53.35" r=".35" style="fill:#e6e4f2;"/><circle cx="793.13" cy="11.04" r=".35" style="fill:#e6e4f2;"/><circle cx="943.46" cy="30.33" r=".35" style="fill:#e6e4f2;"/><circle cx="862.87" cy="53.35" r=".35" style="fill:#e6e4f2;"/><circle cx="885.9" cy="87.89" r=".35" style="fill:#e6e4f2;"/><circle cx="198.78" cy="89.19" r=".35" style="fill:#e6e4f2;"/><circle cx="209.14" cy="8.59" r=".35" style="fill:#e6e4f2;"/><circle cx="105.52" cy="89.19" r=".35" style="fill:#e6e4f2;"/><circle cx="354.48" cy="22.55" r=".35" style="fill:#e6e4f2;"/><circle cx="400.53" cy="91.63" r=".35" style="fill:#e6e4f2;"/><circle cx="331.45" cy="57.09" r=".35" style="fill:#e6e4f2;"/><circle cx="285.4" cy="11.04" r=".35" style="fill:#e6e4f2;"/><circle cx="36.44" cy="43.13" r=".35" style="fill:#e6e4f2;"/><circle cx="105.52" cy="8.59" r=".35" style="fill:#e6e4f2;"/><circle cx="561.71" cy="11.04" r=".35" style="fill:#e6e4f2;"/><circle cx="699.87" cy="45.57" r=".35" style="fill:#e6e4f2;"/></g><g><circle cx="730.66" cy="83.44" r="1.2" style="fill:#e6e4f2;"/><circle cx="510.48" cy="53.42" r="1.2" style="fill:#e6e4f2;"/><circle cx="320.33" cy="23.39" r="1.2" style="fill:#e6e4f2;"/><circle cx="943.07" cy="63.23" r="1.2" style="fill:#e6e4f2;"/><circle cx="600.55" cy="23.39" r="1.2" style="fill:#e6e4f2;"/><circle cx="750.68" cy="43.41" r="1.2" style="fill:#e6e4f2;"/><circle cx="76.86" cy="86.04" r="1.2" style="fill:#e6e4f2;"/><circle cx="430.42" cy="3.38" r="1.2" style="fill:#e6e4f2;"/><circle cx="579.56" cy="87.96" r="1.2" style="fill:#e6e4f2;"/></g><g><circle cx="343.54" cy="38.89" r=".66" style="fill:#e6e4f2;"/><circle cx="447.16" cy="15.87" r=".66" style="fill:#e6e4f2;"/><circle cx="793.21" cy="69.7" r=".66" style="fill:#e6e4f2;"/><circle cx="896.83" cy="12.13" r=".66" style="fill:#e6e4f2;"/><circle cx="977.43" cy="46.67" r=".66" style="fill:#e6e4f2;"/><circle cx="1000.45" cy="81.21" r=".66" style="fill:#e6e4f2;"/><circle cx="769.53" cy="91.85" r=".66" style="fill:#e6e4f2;"/><circle cx="619.86" cy="57.32" r=".66" style="fill:#e6e4f2;"/><circle cx="665.91" cy="11.26" r=".66" style="fill:#e6e4f2;"/><circle cx="37.02" cy="20.33" r=".66" style="fill:#e6e4f2;"/><circle cx="106.1" cy="43.36" r=".66" style="fill:#e6e4f2;"/><circle cx="186.69" cy="66.39" r=".66" style="fill:#e6e4f2;"/><circle cx="493.21" cy="11.26" r=".66" style="fill:#e6e4f2;"/><circle cx="458.67" cy="80.34" r=".66" style="fill:#e6e4f2;"/><circle cx="677.42" cy="103.37" r=".66" style="fill:#e6e4f2;"/><circle cx="378.08" cy="80.34" r=".66" style="fill:#e6e4f2;"/><circle cx="251.43" cy="57.32" r=".66" style="fill:#e6e4f2;"/></g><g><circle cx="285.4" cy="96.46" r=".35" style="fill:#e6e4f2;"/><circle cx="24.93" cy="105.53" r=".35" style="fill:#e6e4f2;"/><circle cx="117.03" cy="94.02" r=".35" style="fill:#e6e4f2;"/><circle cx="458.1" cy="61.92" r=".35" style="fill:#e6e4f2;"/><circle cx="561.71" cy="61.92" r=".35" style="fill:#e6e4f2;"/><circle cx="838.69" cy="92.73" r=".35" style="fill:#e6e4f2;"/><circle cx="722.9" cy="38.89" r=".35" style="fill:#e6e4f2;"/><circle cx="653.82" cy="73.43" r=".35" style="fill:#e6e4f2;"/><circle cx="884.74" cy="58.19" r=".35" style="fill:#e6e4f2;"/><circle cx="953.82" cy="35.16" r=".35" style="fill:#e6e4f2;"/><circle cx="70.98" cy="59.48" r=".35" style="fill:#e6e4f2;"/><circle cx="250.86" cy="27.38" r=".35" style="fill:#e6e4f2;"/><circle cx="296.91" cy="50.41" r=".35" style="fill:#e6e4f2;"/><circle cx="227.83" cy="96.46" r=".35" style="fill:#e6e4f2;"/><circle cx="319.94" cy="73.43" r=".35" style="fill:#e6e4f2;"/><circle cx="400.53" cy="50.41" r=".35" style="fill:#e6e4f2;"/><circle cx="377.5" cy="15.87" r=".35" style="fill:#e6e4f2;"/><circle cx="538.69" cy="27.38" r=".35" style="fill:#e6e4f2;"/><circle cx="528.33" cy="107.97" r=".35" style="fill:#e6e4f2;"/><circle cx="631.94" cy="27.38" r=".35" style="fill:#e6e4f2;"/><circle cx="908.92" cy="81.21" r=".35" style="fill:#e6e4f2;"/><circle cx="862.87" cy="12.13" r=".35" style="fill:#e6e4f2;"/><circle cx="931.95" cy="46.67" r=".35" style="fill:#e6e4f2;"/><circle cx="978" cy="92.73" r=".35" style="fill:#e6e4f2;"/><circle cx="793.13" cy="27.38" r=".35" style="fill:#e6e4f2;"/><circle cx="701.02" cy="73.43" r=".35" style="fill:#e6e4f2;"/><circle cx="631.94" cy="107.97" r=".35" style="fill:#e6e4f2;"/><circle cx="175.75" cy="105.53" r=".35" style="fill:#e6e4f2;"/><circle cx="37.59" cy="70.99" r=".35" style="fill:#e6e4f2;"/></g><g><g><rect x="715.7" y="55.47" width="51.34" height="152.75" style="fill:url(#d);"/><g><rect x="715.7" y="52.1" width="52.45" height="6.3" style="fill:url(#e);"/><rect x="715.7" y="57.94" width="52.99" height="2.44" style="fill:url(#f);"/><rect x="715.7" y="50.56" width="52.99" height="2.44" style="fill:url(#g);"/></g><rect x="716.25" y="189.94" width="51.9" height="18.28" style="fill:url(#h);"/><rect x="715.7" y="188.38" width="52.99" height="2.44" style="fill:url(#i);"/></g><g><polygon points="690.49 198.54 715.7 208.22 715.7 55.47 690.49 74.82 690.49 198.54" style="fill:url(#j);"/><g><polygon points="690.31 77.75 715.7 58.39 715.7 52.09 690.31 71.45 690.31 77.75" style="fill:url(#k);"/><polygon points="690.23 79.73 715.7 60.38 715.7 57.94 690.23 77.29 690.23 79.73" style="fill:url(#l);"/><polygon points="690.23 72.36 715.7 53.01 715.7 50.56 690.23 69.91 690.23 72.36" style="fill:url(#m);"/></g><polygon points="690.31 198.54 715.61 208.22 715.61 189.94 690.31 180.27 690.31 198.54" style="fill:url(#n);"/><polygon points="690.23 181.15 715.7 190.83 715.7 188.38 690.23 178.71 690.23 181.15" style="fill:url(#o);"/></g></g><g><g><rect x="710.78" y="72.84" width="53.11" height="135.7" transform="translate(1474.67 281.37) rotate(-180)" style="fill:url(#p);"/><g><rect x="709.46" y="68.82" width="54.43" height="7.49" transform="translate(1473.35 145.14) rotate(-180)" style="fill:url(#q);"/><rect x="708.81" y="75.77" width="55.08" height="2.91" transform="translate(1472.7 154.46) rotate(-180)" style="fill:url(#r);"/><rect x="708.81" y="67" width="55.08" height="2.91" transform="translate(1472.7 136.9) rotate(-180)" style="fill:url(#s);"/></g><rect x="709.46" y="186.79" width="53.78" height="21.75" transform="translate(1472.7 395.32) rotate(-180)" style="fill:url(#t);"/><rect x="708.81" y="184.93" width="55.08" height="2.91" transform="translate(1472.7 372.77) rotate(-180)" style="fill:url(#u);"/></g><g><polygon points="793.89 197.02 763.89 208.53 763.89 72.84 793.89 84.35 793.89 197.02" style="fill:url(#v);"/><g><polygon points="794.1 87.83 763.89 76.32 763.89 68.82 794.1 80.33 794.1 87.83" style="fill:url(#w);"/><polygon points="794.2 90.19 763.89 78.68 763.89 75.77 794.2 87.29 794.2 90.19" style="fill:url(#x);"/><polygon points="794.2 81.42 763.89 69.9 763.89 67 794.2 78.51 794.2 81.42" style="fill:url(#y);"/></g><polygon points="794.1 197.02 764 208.53 764 186.79 794.1 175.27 794.1 197.02" style="fill:url(#a`);"/><polygon points="794.2 176.33 763.89 187.84 763.89 184.93 794.2 173.42 794.2 176.33" style="fill:url(#aa);"/></g></g><g><g><rect x="520.43" y="119.89" width="144.47" height="105.68" transform="translate(1185.34 345.47) rotate(-180)" style="fill:url(#ab);"/><g><rect x="519.41" y="116.77" width="144.99" height="5.84" transform="translate(1183.8 239.37) rotate(-180)" style="fill:url(#ac);"/><rect x="518.9" y="122.18" width="146.01" height="2.27" transform="translate(1183.8 246.62) rotate(-180)" style="fill:url(#ad);"/><rect x="518.9" y="115.34" width="146.01" height="2.27" transform="translate(1183.8 232.95) rotate(-180)" style="fill:url(#ae);"/></g><rect x="518.9" y="130.98" width="146.01" height="2.27" transform="translate(1183.8 264.22) rotate(-180)" style="fill:url(#af);"/><rect x="519.41" y="208.63" width="144.99" height="17.08" transform="translate(1183.8 434.35) rotate(-180)" style="fill:url(#ag);"/><rect x="518.9" y="207.19" width="146.01" height="2.27" transform="translate(1183.8 416.64) rotate(-180)" style="fill:url(#ah);"/></g><g><rect x="813.63" y="119.89" width="144.47" height="105.68" style="fill:url(#ai);"/><g><rect x="814.14" y="116.77" width="144.99" height="5.84" style="fill:url(#aj);"/><rect x="813.63" y="122.18" width="146.01" height="2.27" style="fill:url(#ak);"/><rect x="813.63" y="115.34" width="146.01" height="2.27" style="fill:url(#al);"/></g><rect x="813.63" y="130.98" width="146.01" height="2.27" style="fill:url(#am);"/><rect x="814.14" y="208.63" width="144.99" height="17.08" style="fill:url(#an);"/><rect x="813.63" y="207.19" width="146.01" height="2.27" style="fill:url(#ao);"/></g><rect x="519.04" y="126.27" width="440.56" height=".97" rx=".42" ry=".42" style="fill:#f9b50b;"/><g><rect x="828.49" y="185.22" width="16.3" height="40.84" style="fill:#2c1d77;"/><rect x="812.2" y="185.22" width="16.3" height="40.84" style="fill:#2c1d77;"/><rect x="813.2" y="206.54" width="14.52" height="1.44" style="fill:#3e3293;"/><rect x="829.38" y="206.54" width="14.52" height="1.44" style="fill:#3e3293;"/><rect x="812.2" y="174.29" width="32.59" height="10.93" style="fill:#2c1d77;"/><path d="M845.69,186.12h-34.39v-12.72h34.39v12.72Zm-32.59-1.79h30.8v-9.14h-30.8v9.14Z" style="fill:#02092d;"/><path d="M826.7,187.01v37.25h-12.71v-37.25h12.71m1.79-1.79h-16.3v40.84h16.3v-40.84h0Z" style="fill:#02092d;"/><path d="M843,187.01v37.25h-12.71v-37.25h12.71m1.79-1.79h-16.3v40.84h16.3v-40.84h0Z" style="fill:#02092d;"/><path d="M827.76,210.12h-1.14c-.54,0-.98-.44-.98-.98v-3.76c0-.54,.44-.98,.98-.98h1.14c.18,0,.33,.15,.33,.33s-.15,.33-.33,.33h-1.14c-.18,0-.33,.15-.33,.33v3.76c0,.18,.15,.33,.33,.33h1.14c.18,0,.33,.15,.33,.33s-.15,.33-.33,.33Z" style="fill:#433ab5;"/><path d="M829.23,210.12h1.14c.54,0,.98-.44,.98-.98v-3.76c0-.54-.44-.98-.98-.98h-1.14c-.18,0-.33,.15-.33,.33,0,.18,.15,.33,.33,.33h1.14c.18,0,.33,.15,.33,.33v3.76c0,.18-.15,.33-.33,.33h-1.14c-.18,0-.33,.15-.33,.33,0,.18,.15,.33,.33,.33Z" style="fill:#433ab5;"/></g><g><g><circle cx="629.21" cy="143.3" r=".77" style="fill:#f9b50b;"/><circle cx="621.96" cy="143.3" r=".77" style="fill:#f9b50b;"/><circle cx="614.72" cy="143.3" r=".77" style="fill:#f9b50b;"/><circle cx="607.47" cy="143.3" r=".77" style="fill:#f9b50b;"/><circle cx="600.22" cy="143.3" r=".77" style="fill:#f9b50b;"/><circle cx="592.97" cy="143.3" r=".77" style="fill:#f9b50b;"/><circle cx="585.73" cy="143.3" r=".77" style="fill:#f9b50b;"/><circle cx="578.48" cy="143.3" r=".77" style="fill:#f9b50b;"/><circle cx="571.23" cy="143.3" r=".77" style="fill:#f9b50b;"/><circle cx="563.99" cy="143.3" r=".77" style="fill:#f9b50b;"/><circle cx="556.74" cy="143.3" r=".77" style="fill:#f9b50b;"/><circle cx="549.49" cy="143.3" r=".77" style="fill:#f9b50b;"/></g><g><circle cx="658.2" cy="143.3" r=".77" style="fill:#f9b50b;"/><circle cx="650.95" cy="143.3" r=".77" style="fill:#f9b50b;"/><circle cx="643.7" cy="143.3" r=".77" style="fill:#f9b50b;"/><circle cx="636.46" cy="143.3" r=".77" style="fill:#f9b50b;"/><circle cx="629.21" cy="143.3" r=".77" style="fill:#f9b50b;"/></g></g><g><g><circle cx="849.33" cy="143.3" r=".77" style="fill:#f9b50b;"/><circle cx="856.58" cy="143.3" r=".77" style="fill:#f9b50b;"/><circle cx="863.82" cy="143.3" r=".77" style="fill:#f9b50b;"/><circle cx="871.07" cy="143.3" r=".77" style="fill:#f9b50b;"/><circle cx="878.32" cy="143.3" r=".77" style="fill:#f9b50b;"/><circle cx="885.57" cy="143.3" r=".77" style="fill:#f9b50b;"/><circle cx="892.81" cy="143.3" r=".77" style="fill:#f9b50b;"/><circle cx="900.06" cy="143.3" r=".77" style="fill:#f9b50b;"/><circle cx="907.31" cy="143.3" r=".77" style="fill:#f9b50b;"/><circle cx="914.55" cy="143.3" r=".77" style="fill:#f9b50b;"/><circle cx="921.8" cy="143.3" r=".77" style="fill:#f9b50b;"/><circle cx="929.05" cy="143.3" r=".77" style="fill:#f9b50b;"/></g><g><circle cx="820.34" cy="143.3" r=".77" style="fill:#f9b50b;"/><circle cx="827.59" cy="143.3" r=".77" style="fill:#f9b50b;"/><circle cx="834.84" cy="143.3" r=".77" style="fill:#f9b50b;"/><circle cx="842.08" cy="143.3" r=".77" style="fill:#f9b50b;"/><circle cx="849.33" cy="143.3" r=".77" style="fill:#f9b50b;"/></g></g><g><rect x="658.05" y="87.1" width="71.04" height="52.97" transform="translate(1387.14 227.17) rotate(-180)" style="fill:url(#ap);"/><g><rect x="654.29" y="84.55" width="74.39" height="4.76" transform="translate(1382.96 173.86) rotate(-180)" style="fill:url(#aq);"/><rect x="653.88" y="88.96" width="75.21" height="1.85" transform="translate(1382.96 179.78) rotate(-180)" style="fill:url(#ar);"/><rect x="653.88" y="83.39" width="75.21" height="1.85" transform="translate(1382.96 168.62) rotate(-180)" style="fill:url(#as);"/></g><rect x="653.88" y="96.14" width="75.21" height="1.85" transform="translate(1382.96 194.13) rotate(-180)" style="fill:url(#at);"/></g><g><circle cx="650.8" cy="67.76" r="10.55" style="fill:url(#au);"/><rect x="641.82" y="81.42" width="17.97" height="58.65" transform="translate(1301.6 221.49) rotate(-180)" style="fill:url(#av);"/><g><rect x="654.65" y="95.13" width=".73" height="49.31" rx=".32" ry=".32" style="fill:#a571ea;"/><rect x="652.62" y="89.75" width=".73" height="54.69" rx=".32" ry=".32" style="fill:#a571ea;"/><rect x="650.58" y="85.27" width=".73" height="59.18" rx=".32" ry=".32" style="fill:#a571ea;"/><rect x="648.55" y="89.75" width=".73" height="54.69" rx=".32" ry=".32" style="fill:#a571ea;"/><rect x="646.52" y="95.13" width=".73" height="49.31" rx=".32" ry=".32" style="fill:#a571ea;"/></g><rect x="640.81" y="73.8" width="19.99" height="6.44" transform="translate(1301.6 154.04) rotate(-180)" style="fill:url(#aw);"/><rect x="640.25" y="79.78" width="21.11" height="2.5" transform="translate(1301.6 162.06) rotate(-180)" style="fill:url(#ax);"/><rect x="640.25" y="72.23" width="21.11" height="2.5" transform="translate(1301.6 146.96) rotate(-180)" style="fill:url(#ay);"/><rect x="650.24" y="53.62" width="1.12" height="25.11" rx=".49" ry=".49" transform="translate(584.63 716.97) rotate(-90)" style="fill:#f9b50b;"/><rect x="650.24" y="51.96" width="1.12" height="21.52" rx=".49" ry=".49" transform="translate(588.08 713.52) rotate(-90)" style="fill:#a571ea;"/><rect x="650.24" y="50.75" width="1.12" height="17.04" rx=".49" ry=".49" transform="translate(591.53 710.07) rotate(-90)" style="fill:#f9b50b;"/></g><g><rect x="603" y="179.11" width="17.29" height="23.79" style="fill:url(#b`);"/><path d="M602.18,178.2v25.61h18.94v-25.61h-18.94Zm1.63,1.68h15.69v22.26h-15.69v-22.26Z" style="fill:#110e4c;"/><path d="M601.21,177.32v27.38h20.88v-27.38h-20.88Zm1.79,1.79h17.29v23.79h-17.29v-23.79Z" style="fill:#271d82;"/></g><g><rect x="577.08" y="179.11" width="17.29" height="23.79" style="fill:url(#ba);"/><path d="M576.26,178.2v25.61h18.94v-25.61h-18.94Zm1.63,1.68h15.69v22.26h-15.69v-22.26Z" style="fill:#110e4c;"/><path d="M575.29,177.32v27.38h20.88v-27.38h-20.88Zm1.79,1.79h17.29v23.79h-17.29v-23.79Z" style="fill:#271d82;"/></g><g><rect x="551.16" y="179.11" width="17.29" height="23.79" style="fill:url(#bb);"/><path d="M550.34,178.2v25.61h18.94v-25.61h-18.94Zm1.63,1.68h15.69v22.26h-15.69v-22.26Z" style="fill:#110e4c;"/><path d="M549.37,177.32v27.38h20.88v-27.38h-20.88Zm1.79,1.79h17.29v23.79h-17.29v-23.79Z" style="fill:#271d82;"/></g><g><rect x="633.75" y="185.22" width="16.3" height="40.84" transform="translate(1283.79 411.27) rotate(-180)" style="fill:#2c1d77;"/><rect x="650.05" y="185.22" width="16.3" height="40.84" transform="translate(1316.39 411.27) rotate(-180)" style="fill:#2c1d77;"/><rect x="650.82" y="206.54" width="14.52" height="1.44" transform="translate(1316.16 414.53) rotate(-180)" style="fill:#3e3293;"/><rect x="634.64" y="206.54" width="14.52" height="1.44" transform="translate(1283.79 414.53) rotate(-180)" style="fill:#3e3293;"/><rect x="633.75" y="174.29" width="32.59" height="10.93" transform="translate(1300.09 359.51) rotate(-180)" style="fill:#2c1d77;"/><path d="M632.85,173.39h34.39v12.72h-34.39v-12.72Zm32.59,1.79h-30.8v9.14h30.8v-9.14Z" style="fill:#02092d;"/><path d="M651.84,187.01h12.71v37.25h-12.71v-37.25m-1.79-1.79v40.84h16.3v-40.84h-16.3Z" style="fill:#02092d;"/><path d="M635.54,187.01h12.71v37.25h-12.71v-37.25m-1.79-1.79v40.84h16.3v-40.84h-16.3Z" style="fill:#02092d;"/><path d="M650.78,210.12h1.14c.54,0,.98-.44,.98-.98v-3.76c0-.54-.44-.98-.98-.98h-1.14c-.18,0-.33,.15-.33,.33s.15,.33,.33,.33h1.14c.18,0,.33,.15,.33,.33v3.76c0,.18-.15,.33-.33,.33h-1.14c-.18,0-.33,.15-.33,.33,0,.18,.15,.33,.33,.33Z" style="fill:#433ab5;"/><path d="M649.31,210.12h-1.14c-.54,0-.98-.44-.98-.98v-3.76c0-.54,.44-.98,.98-.98h1.14c.18,0,.33,.15,.33,.33s-.15,.33-.33,.33h-1.14c-.18,0-.33,.15-.33,.33v3.76c0,.18,.15,.33,.33,.33h1.14c.18,0,.33,.15,.33,.33s-.15,.33-.33,.33Z" style="fill:#433ab5;"/></g><g><rect x="525.24" y="179.11" width="17.29" height="23.79" style="fill:url(#bc);"/><path d="M524.42,178.2v25.61h18.94v-25.61h-18.94Zm1.63,1.68h15.69v22.26h-15.69v-22.26Z" style="fill:#110e4c;"/><path d="M523.45,177.32v27.38h20.88v-27.38h-20.88Zm1.79,1.79h17.29v23.79h-17.29v-23.79Z" style="fill:#271d82;"/></g><rect x="544.78" y="143.82" width="124.64" height="25.24" rx="3" ry="3" style="fill:url(#bd);"/><g><rect x="606.87" y="82.98" width="1.12" height="128.22" rx=".49" ry=".49" transform="translate(460.35 754.52) rotate(-90)" style="fill:#a571ea;"/><rect x="606.87" y="86.09" width="1.12" height="128.22" rx=".49" ry=".49" transform="translate(457.23 757.64) rotate(-90)" style="fill:#a571ea;"/><rect x="606.87" y="89.21" width="1.12" height="128.22" rx=".49" ry=".49" transform="translate(454.11 760.75) rotate(-90)" style="fill:#a571ea;"/><rect x="606.87" y="92.33" width="1.12" height="128.22" rx=".49" ry=".49" transform="translate(451 763.87) rotate(-90)" style="fill:#a571ea;"/><rect x="606.87" y="95.45" width="1.12" height="128.22" rx=".49" ry=".49" transform="translate(447.88 766.99) rotate(-90)" style="fill:#a571ea;"/><rect x="606.87" y="98.57" width="1.12" height="128.22" rx=".49" ry=".49" transform="translate(444.76 770.11) rotate(-90)" style="fill:#a571ea;"/><rect x="606.87" y="101.69" width="1.12" height="128.22" rx=".49" ry=".49" transform="translate(441.64 773.23) rotate(-90)" style="fill:#a571ea;"/></g><polygon points="709.69 168.87 546.51 168.87 558.75 173.77 697.45 173.77 709.69 168.87" style="fill:url(#be);"/><g><path d="M568.72,170.17c7.07,0,9.43,1.79,9.43,1.79v59.46s-2.36,1.58-9.43,1.58c-7.07,0-9.43-1.58-9.43-1.58v-59.46s2.36-1.79,9.43-1.79Z" style="fill:url(#bf);"/><path d="M579.13,181.42h0c-.03,.3-.24,.51-.46,.47-6.6-1.41-13.32-1.41-19.92,0-.22,.05-.42-.16-.46-.47h0c-.03-.3,.12-.59,.34-.64,6.68-1.43,13.48-1.43,20.16,0,.22,.05,.37,.34,.34,.64Z" style="fill:#f9b50b;"/><path d="M579.13,184.54h0c-.03,.3-.24,.51-.46,.47-6.6-1.41-13.32-1.41-19.92,0-.22,.05-.42-.16-.46-.47h0c-.03-.3,.12-.59,.34-.64,6.68-1.43,13.48-1.43,20.16,0,.22,.05,.37,.34,.34,.64Z" style="fill:#a571ea;"/><path d="M559.21,234.59c6.32,.95,12.7,.95,19.02,0,.35-.05,.6-.5,.56-.99l-.12-1.56c-.04-.49-.34-.85-.68-.8-6.17,.93-12.38,.93-18.55,0-.34-.05-.64,.31-.68,.8l-.12,1.56c-.04,.49,.22,.94,.56,.99Z" style="fill:url(#bg);"/><rect x="558.64" y="215.29" width="20.5" height="3.01" rx="1.31" ry="1.31" transform="translate(1137.78 433.6) rotate(180)" style="fill:url(#bh);"/></g><g><g><circle cx="629.21" cy="170.13" r=".77" style="fill:#f9b50b;"/><circle cx="621.96" cy="170.13" r=".77" style="fill:#f9b50b;"/><circle cx="614.72" cy="170.13" r=".77" style="fill:#f9b50b;"/><circle cx="607.47" cy="170.13" r=".77" style="fill:#f9b50b;"/><circle cx="600.22" cy="170.13" r=".77" style="fill:#f9b50b;"/><circle cx="592.97" cy="170.13" r=".77" style="fill:#f9b50b;"/><circle cx="585.73" cy="170.13" r=".77" style="fill:#f9b50b;"/><circle cx="578.48" cy="170.13" r=".77" style="fill:#f9b50b;"/><circle cx="571.23" cy="170.13" r=".77" style="fill:#f9b50b;"/><circle cx="563.99" cy="170.13" r=".77" style="fill:#f9b50b;"/><circle cx="556.74" cy="170.13" r=".77" style="fill:#f9b50b;"/><circle cx="549.49" cy="170.13" r=".77" style="fill:#f9b50b;"/></g><g><circle cx="658.2" cy="170.13" r=".77" style="fill:#f9b50b;"/><circle cx="650.95" cy="170.13" r=".77" style="fill:#f9b50b;"/><circle cx="643.7" cy="170.13" r=".77" style="fill:#f9b50b;"/><circle cx="636.46" cy="170.13" r=".77" style="fill:#f9b50b;"/><circle cx="629.21" cy="170.13" r=".77" style="fill:#f9b50b;"/></g></g><g><rect x="749.45" y="87.1" width="71.04" height="52.97" style="fill:url(#bi);"/><g><rect x="749.86" y="84.55" width="74.39" height="4.76" style="fill:url(#bj);"/><rect x="749.45" y="88.96" width="75.21" height="1.85" style="fill:url(#bk);"/><rect x="749.45" y="83.39" width="75.21" height="1.85" style="fill:url(#bl);"/></g><rect x="749.45" y="96.14" width="75.21" height="1.85" style="fill:url(#bm);"/></g><g><circle cx="827.74" cy="67.76" r="10.55" style="fill:url(#bn);"/><rect x="818.75" y="81.42" width="17.97" height="58.65" style="fill:url(#bo);"/><g><rect x="823.16" y="95.13" width=".73" height="49.31" rx=".32" ry=".32" transform="translate(1647.05 239.57) rotate(-180)" style="fill:#a571ea;"/><rect x="825.19" y="89.75" width=".73" height="54.69" rx=".32" ry=".32" transform="translate(1651.11 234.19) rotate(180)" style="fill:#a571ea;"/><rect x="827.22" y="85.27" width=".73" height="59.18" rx=".32" ry=".32" transform="translate(1655.18 229.71) rotate(-180)" style="fill:#a571ea;"/><rect x="829.26" y="89.75" width=".73" height="54.69" rx=".32" ry=".32" transform="translate(1659.25 234.19) rotate(-180)" style="fill:#a571ea;"/><rect x="831.29" y="95.13" width=".73" height="49.31" rx=".32" ry=".32" transform="translate(1663.31 239.57) rotate(180)" style="fill:#a571ea;"/></g><rect x="817.74" y="73.8" width="19.99" height="6.44" style="fill:url(#bp);"/><rect x="817.18" y="79.78" width="21.11" height="2.5" style="fill:url(#bq);"/><rect x="817.18" y="72.23" width="21.11" height="2.5" style="fill:url(#br);"/><rect x="827.18" y="53.62" width="1.12" height="25.11" rx=".49" ry=".49" transform="translate(761.57 893.91) rotate(-90)" style="fill:#f9b50b;"/><rect x="827.18" y="51.96" width="1.12" height="21.52" rx=".49" ry=".49" transform="translate(765.02 890.46) rotate(-90)" style="fill:#a571ea;"/><rect x="827.18" y="50.75" width="1.12" height="17.04" rx=".49" ry=".49" transform="translate(768.47 887.01) rotate(-90)" style="fill:#f9b50b;"/></g><g><circle cx="740.09" cy="122.05" r="61.15" style="fill:url(#bs);"/><path d="M671.15,122.05c0-38.01,30.93-68.94,68.94-68.94s68.94,30.93,68.94,68.94-30.93,68.94-68.94,68.94-68.94-30.93-68.94-68.94Zm128.93,0c0-33.08-26.91-59.99-59.99-59.99s-59.99,26.91-59.99,59.99,26.91,59.99,59.99,59.99,59.99-26.91,59.99-59.99Z" style="fill:url(#bt);"/><path d="M740.09,189.71c-37.31,0-67.66-30.35-67.66-67.66s30.35-67.66,67.66-67.66,67.66,30.35,67.66,67.66-30.35,67.66-67.66,67.66Zm0-128.93c-33.78,0-61.27,27.48-61.27,61.27s27.48,61.27,61.27,61.27,61.27-27.48,61.27-61.27-27.48-61.27-61.27-61.27Z" style="fill:#02092d;"/><path d="M740.09,187.16c-35.9,0-65.1-29.2-65.1-65.1s29.2-65.1,65.1-65.1,65.1,29.2,65.1,65.1-29.2,65.1-65.1,65.1Zm0-128.93c-35.19,0-63.82,28.63-63.82,63.82s28.63,63.82,63.82,63.82,63.82-28.63,63.82-63.82-28.63-63.82-63.82-63.82Z" style="fill:#a571ea;"/><g><rect x="739.35" y="66.27" width="1.49" height="52.21" rx=".58" ry=".58" style="fill:#f9b50b;"/><rect x="731.67" y="67.28" width="1.49" height="52.21" rx=".58" ry=".58" transform="translate(.79 192.74) rotate(-15)" style="fill:#f9b50b;"/><rect x="724.51" y="70.25" width="1.49" height="52.21" rx=".58" ry=".58" transform="translate(48.99 375.54) rotate(-30)" style="fill:#f9b50b;"/><rect x="718.36" y="74.97" width="1.49" height="52.21" rx=".58" ry=".58" transform="translate(139.16 538.09) rotate(-45)" style="fill:#f9b50b;"/><rect x="713.65" y="81.11" width="1.49" height="52.21" rx=".58" ry=".58" transform="translate(264.35 672.29) rotate(-60)" style="fill:#f9b50b;"/><rect x="710.68" y="88.27" width="1.49" height="52.21" rx=".58" ry=".58" transform="translate(416.82 771.96) rotate(-75)" style="fill:#f9b50b;"/><rect x="709.67" y="95.95" width="1.49" height="52.21" rx=".58" ry=".58" transform="translate(588.36 832.47) rotate(-90)" style="fill:#f9b50b;"/><rect x="710.68" y="103.63" width="1.49" height="52.21" rx=".58" ry=".58" transform="translate(770.25 850.5) rotate(-105)" style="fill:#f9b50b;"/><rect x="713.65" y="110.79" width="1.49" height="52.21" rx=".58" ry=".58" transform="translate(953.04 824.02) rotate(-120)" style="fill:#f9b50b;"/><rect x="718.36" y="116.93" width="1.49" height="52.21" rx=".58" ry=".58" transform="translate(1126.45 752.67) rotate(-135)" style="fill:#f9b50b;"/><rect x="724.51" y="121.65" width="1.49" height="52.21" rx=".58" ry=".58" transform="translate(1279.47 638.34) rotate(-150)" style="fill:#f9b50b;"/><rect x="731.67" y="124.61" width="1.49" height="52.21" rx=".58" ry=".58" transform="translate(1400.86 485.86) rotate(-165)" style="fill:#f9b50b;"/><rect x="739.35" y="125.62" width="1.49" height="52.21" rx=".58" ry=".58" transform="translate(1480.19 303.46) rotate(-180)" style="fill:#f9b50b;"/><rect x="747.03" y="124.61" width="1.49" height="52.21" rx=".58" ry=".58" transform="translate(1509.08 102.76) rotate(165)" style="fill:#f9b50b;"/><rect x="754.19" y="121.65" width="1.49" height="52.21" rx=".58" ry=".58" transform="translate(1482.6 -101.75) rotate(150)" style="fill:#f9b50b;"/><rect x="760.33" y="116.93" width="1.49" height="52.21" rx=".58" ry=".58" transform="translate(1400.38 -293.98) rotate(135)" style="fill:#f9b50b;"/><rect x="765.05" y="110.79" width="1.49" height="52.21" rx=".58" ry=".58" transform="translate(1267.24 -457.86) rotate(120)" style="fill:#f9b50b;"/><rect x="768.01" y="103.63" width="1.49" height="52.21" rx=".58" ry=".58" transform="translate(1093.04 -579.25) rotate(105)" style="fill:#f9b50b;"/><rect x="769.02" y="95.95" width="1.49" height="52.21" rx=".58" ry=".58" transform="translate(891.82 -647.72) rotate(90)" style="fill:#f9b50b;"/><rect x="768.01" y="88.27" width="1.49" height="52.21" rx=".58" ry=".58" transform="translate(680.26 -657.79) rotate(75)" style="fill:#f9b50b;"/><rect x="765.05" y="81.11" width="1.49" height="52.21" rx=".58" ry=".58" transform="translate(475.75 -609.59) rotate(60)" style="fill:#f9b50b;"/><rect x="760.33" y="74.97" width="1.49" height="52.21" rx=".58" ry=".58" transform="translate(294.38 -508.56) rotate(45)" style="fill:#f9b50b;"/><rect x="754.19" y="70.25" width="1.49" height="52.21" rx=".58" ry=".58" transform="translate(149.32 -364.56) rotate(30)" style="fill:#f9b50b;"/><rect x="747.03" y="67.28" width="1.49" height="52.21" rx=".58" ry=".58" transform="translate(49.65 -190.36) rotate(15)" style="fill:#f9b50b;"/></g><g><rect x="735.22" y="66.56" width="1.49" height="52.21" rx=".58" ry=".58" transform="translate(-5.73 103.33) rotate(-8)" style="fill:#a571ea;"/><rect x="727.75" y="68.63" width="1.49" height="52.21" rx=".58" ry=".58" transform="translate(20.9 292.18) rotate(-23)" style="fill:#a571ea;"/><rect x="721.08" y="72.56" width="1.49" height="52.21" rx=".58" ry=".58" transform="translate(92.27 465.32) rotate(-38)" style="fill:#a571ea;"/><rect x="715.65" y="78.09" width="1.49" height="52.21" rx=".58" ry=".58" transform="translate(202.05 613.63) rotate(-53)" style="fill:#a571ea;"/><rect x="711.83" y="84.83" width="1.49" height="52.21" rx=".58" ry=".58" transform="translate(342.78 730.07) rotate(-68)" style="fill:#a571ea;"/><rect x="709.89" y="92.33" width="1.49" height="52.21" rx=".58" ry=".58" transform="translate(506.48 809.34) rotate(-83)" style="fill:#a571ea;"/><rect x="709.96" y="100.08" width="1.49" height="52.21" rx=".58" ry=".58" transform="translate(684.66 847.53) rotate(-98)" style="fill:#a571ea;"/><rect x="712.03" y="107.54" width="1.49" height="52.21" rx=".58" ry=".58" transform="translate(868.26 841.98) rotate(-113)" style="fill:#a571ea;"/><rect x="715.96" y="114.22" width="1.49" height="52.21" rx=".58" ry=".58" transform="translate(1047.38 791.49) rotate(-128)" style="fill:#a571ea;"/><rect x="721.49" y="119.65" width="1.49" height="52.21" rx=".58" ry=".58" transform="translate(1211.32 696.81) rotate(-143)" style="fill:#a571ea;"/><rect x="728.23" y="123.46" width="1.49" height="52.21" rx=".58" ry=".58" transform="translate(1348.84 561.32) rotate(-158)" style="fill:#a571ea;"/><rect x="735.73" y="125.4" width="1.49" height="52.21" rx=".58" ry=".58" transform="translate(1449 391.64) rotate(-173)" style="fill:#a571ea;"/><rect x="743.48" y="125.34" width="1.49" height="52.21" rx=".58" ry=".58" transform="translate(1502.28 197.83) rotate(172)" style="fill:#a571ea;"/><rect x="750.94" y="123.26" width="1.49" height="52.21" rx=".58" ry=".58" transform="translate(1501.98 -6.84) rotate(157)" style="fill:#a571ea;"/><rect x="757.62" y="119.33" width="1.49" height="52.21" rx=".58" ry=".58" transform="translate(1445.5 -206.85) rotate(142)" style="fill:#a571ea;"/><rect x="763.05" y="113.81" width="1.49" height="52.21" rx=".58" ry=".58" transform="translate(1335.19 -385.88) rotate(127)" style="fill:#a571ea;"/><rect x="766.86" y="107.07" width="1.49" height="52.21" rx=".58" ry=".58" transform="translate(1178.63 -528.66) rotate(112)" style="fill:#a571ea;"/><rect x="768.8" y="99.57" width="1.49" height="52.21" rx=".58" ry=".58" transform="translate(988.07 -622.83) rotate(97)" style="fill:#a571ea;"/><rect x="768.73" y="91.82" width="1.49" height="52.21" rx=".58" ry=".58" transform="translate(779.17 -660.48) rotate(82)" style="fill:#a571ea;"/><rect x="766.66" y="84.35" width="1.49" height="52.21" rx=".58" ry=".58" transform="translate(569.24 -639.11) rotate(67)" style="fill:#a571ea;"/><rect x="762.73" y="77.68" width="1.49" height="52.21" rx=".58" ry=".58" transform="translate(375.22 -561.74) rotate(52)" style="fill:#a571ea;"/><rect x="757.21" y="72.25" width="1.49" height="52.21" rx=".58" ry=".58" transform="translate(211.82 -436.34) rotate(37)" style="fill:#a571ea;"/><rect x="750.46" y="68.43" width="1.49" height="52.21" rx=".58" ry=".58" transform="translate(90.11 -274.52) rotate(22)" style="fill:#a571ea;"/><rect x="742.96" y="66.49" width="1.49" height="52.21" rx=".58" ry=".58" transform="translate(16.83 -89.94) rotate(7)" style="fill:#a571ea;"/></g></g><rect x="759.04" y="187.15" width="19.05" height="47.74" transform="translate(1537.13 422.04) rotate(-180)" style="fill:#2c1d77;"/><rect x="702.1" y="187.15" width="19.05" height="47.74" style="fill:#2c1d77;"/><rect x="703.25" y="209.25" width="17.65" height="2.09" style="fill:#3e3293;"/><rect x="759.74" y="209.25" width="17.65" height="2.09" style="fill:#3e3293;"/><path d="M719.36,188.94v44.16h-15.47v-44.16h15.47m1.79-1.79h-19.05v47.74h19.05v-47.74h0Z" style="fill:#02092d;"/><g><rect x="858.24" y="179.11" width="17.29" height="23.79" style="fill:url(#bu);"/><path d="M857.42,178.2v25.61h18.94v-25.61h-18.94Zm17.31,23.94h-15.69v-22.26h15.69v22.26Z" style="fill:#110e4c;"/><path d="M856.45,177.32v27.38h20.88v-27.38h-20.88Zm19.09,25.58h-17.29v-23.79h17.29v23.79Z" style="fill:#271d82;"/></g><g><rect x="884.16" y="179.11" width="17.29" height="23.79" style="fill:url(#bv);"/><path d="M883.34,178.2v25.61h18.94v-25.61h-18.94Zm17.31,23.94h-15.69v-22.26h15.69v22.26Z" style="fill:#110e4c;"/><path d="M882.37,177.32v27.38h20.88v-27.38h-20.88Zm19.09,25.58h-17.29v-23.79h17.29v23.79Z" style="fill:#271d82;"/></g><g><rect x="910.09" y="179.11" width="17.29" height="23.79" style="fill:url(#bw);"/><path d="M909.26,178.2v25.61h18.94v-25.61h-18.94Zm17.31,23.94h-15.69v-22.26h15.69v22.26Z" style="fill:#110e4c;"/><path d="M908.29,177.32v27.38h20.88v-27.38h-20.88Zm19.09,25.58h-17.29v-23.79h17.29v23.79Z" style="fill:#271d82;"/></g><g><rect x="936.01" y="179.11" width="17.29" height="23.79" style="fill:url(#bx);"/><path d="M935.18,178.2v25.61h18.94v-25.61h-18.94Zm17.31,23.94h-15.69v-22.26h15.69v22.26Z" style="fill:#110e4c;"/><path d="M934.21,177.32v27.38h20.88v-27.38h-20.88Zm19.09,25.58h-17.29v-23.79h17.29v23.79Z" style="fill:#271d82;"/></g><path d="M753.18,27.76c6.31,0,11.48,4.69,11.48,10.41V104.57h-11.48V27.76Z" style="fill:#02092d;"/><path d="M740.09,4.2c-7.39,0-13.44,6.05-13.44,13.44V103.31h26.88V17.64c0-7.39-6.05-13.44-13.44-13.44Z" style="fill:#02092d;"/><path d="M740.09,6.58c-6.28,0-11.41,5.14-11.41,11.41V100.65h22.83V17.99c0-6.28-5.14-11.41-11.41-11.41Z" style="fill:url(#by);"/><rect x="809.11" y="143.82" width="124.64" height="25.24" rx="3" ry="3" transform="translate(1742.87 312.88) rotate(-180)" style="fill:url(#c`);"/><g><rect x="870.55" y="82.98" width="1.12" height="128.22" rx=".49" ry=".49" transform="translate(724.02 1018.19) rotate(-90)" style="fill:#a571ea;"/><rect x="870.55" y="86.09" width="1.12" height="128.22" rx=".49" ry=".49" transform="translate(720.9 1021.31) rotate(-90)" style="fill:#a571ea;"/><rect x="870.55" y="89.21" width="1.12" height="128.22" rx=".49" ry=".49" transform="translate(717.79 1024.43) rotate(-90)" style="fill:#a571ea;"/><rect x="870.55" y="92.33" width="1.12" height="128.22" rx=".49" ry=".49" transform="translate(714.67 1027.54) rotate(-90)" style="fill:#a571ea;"/><rect x="870.55" y="95.45" width="1.12" height="128.22" rx=".49" ry=".49" transform="translate(711.55 1030.66) rotate(-90)" style="fill:#a571ea;"/><rect x="870.55" y="98.57" width="1.12" height="128.22" rx=".49" ry=".49" transform="translate(708.43 1033.78) rotate(-90)" style="fill:#a571ea;"/><rect x="870.55" y="101.69" width="1.12" height="128.22" rx=".49" ry=".49" transform="translate(705.31 1036.9) rotate(-90)" style="fill:#a571ea;"/></g><rect x="739.98" y="174.37" width="38.11" height="12.78" transform="translate(1518.07 361.51) rotate(-180)" style="fill:#2c1d77;"/><path d="M778.99,188.04h-39.9v-14.57h39.9v14.57Zm-38.11-1.79h36.32v-10.98h-36.32v10.98Z" style="fill:#02092d;"/><rect x="778.09" y="174.37" width="12.78" height="12.78" transform="translate(1568.96 361.51) rotate(-180)" style="fill:#2c1d77;"/><path d="M791.76,188.04h-14.57v-14.57h14.57v14.57Zm-12.78-1.79h10.98v-10.98h-10.98v10.98Z" style="fill:#02092d;"/><rect x="778.09" y="187.15" width="12.78" height="47.74" transform="translate(1568.96 422.04) rotate(-180)" style="fill:#2c1d77;"/><path d="M791.76,235.79h-14.57v-49.54h14.57v49.54Zm-12.78-1.79h10.98v-45.95h-10.98v45.95Z" style="fill:#02092d;"/><path d="M776.3,188.94v44.16h-15.47v-44.16h15.47m1.79-1.79h-19.05v47.74h19.05v-47.74h0Z" style="fill:#02092d;"/><rect x="702.1" y="174.37" width="38.11" height="12.78" style="fill:#2c1d77;"/><path d="M741.1,188.04h-39.9v-14.57h39.9v14.57Zm-38.11-1.79h36.32v-10.98h-36.32v10.98Z" style="fill:#02092d;"/><path d="M749.9,101.52h-19.61V20.92c0-6.35,4.4-11.52,9.81-11.52s9.81,5.17,9.81,11.52V101.52Zm-18.72-.9h17.82V20.92c0-5.86-4-10.62-8.91-10.62s-8.91,4.76-8.91,10.62V100.62Z" style="fill:#a571ea;"/><rect x="689.32" y="174.37" width="12.78" height="12.78" style="fill:#2c1d77;"/><path d="M702.99,188.04h-14.57v-14.57h14.57v14.57Zm-12.78-1.79h10.98v-10.98h-10.98v10.98Z" style="fill:#02092d;"/><rect x="689.32" y="187.15" width="12.78" height="47.74" style="fill:#2c1d77;"/><path d="M702.99,235.79h-14.57v-49.54h14.57v49.54Zm-12.78-1.79h10.98v-45.95h-10.98v45.95Z" style="fill:#02092d;"/><rect x="803.44" y="138.7" width="34.98" height="25.24" rx="3" ry="3" transform="translate(1641.85 302.64) rotate(-180)" style="fill:url(#ca);"/><g><rect x="832.14" y="134.79" width="1.12" height="14.35" rx=".49" ry=".49" transform="translate(690.73 974.67) rotate(-90)" style="fill:#f9b50b;"/><rect x="832.14" y="137.91" width="1.12" height="14.35" rx=".49" ry=".49" transform="translate(687.62 977.79) rotate(-90)" style="fill:#f9b50b;"/><rect x="832.14" y="141.03" width="1.12" height="14.35" rx=".49" ry=".49" transform="translate(684.5 980.91) rotate(-90)" style="fill:#f9b50b;"/><rect x="832.14" y="144.15" width="1.12" height="14.35" rx=".49" ry=".49" transform="translate(681.38 984.02) rotate(-90)" style="fill:#f9b50b;"/><rect x="832.14" y="147.27" width="1.12" height="14.35" rx=".49" ry=".49" transform="translate(678.26 987.14) rotate(-90)" style="fill:#f9b50b;"/><rect x="832.14" y="150.39" width="1.12" height="14.35" rx=".49" ry=".49" transform="translate(675.14 990.26) rotate(-90)" style="fill:#f9b50b;"/><rect x="832.14" y="153.5" width="1.12" height="14.35" rx=".49" ry=".49" transform="translate(672.02 993.38) rotate(-90)" style="fill:#f9b50b;"/></g><rect x="641.99" y="138.7" width="34.98" height="25.24" rx="3" ry="3" style="fill:url(#cb);"/><g><rect x="647.15" y="134.79" width="1.12" height="14.35" rx=".49" ry=".49" transform="translate(505.74 789.68) rotate(-90)" style="fill:#f9b50b;"/><rect x="647.15" y="137.91" width="1.12" height="14.35" rx=".49" ry=".49" transform="translate(502.62 792.8) rotate(-90)" style="fill:#f9b50b;"/><rect x="647.15" y="141.03" width="1.12" height="14.35" rx=".49" ry=".49" transform="translate(499.51 795.91) rotate(-90)" style="fill:#f9b50b;"/><rect x="647.15" y="144.15" width="1.12" height="14.35" rx=".49" ry=".49" transform="translate(496.39 799.03) rotate(-90)" style="fill:#f9b50b;"/><rect x="647.15" y="147.27" width="1.12" height="14.35" rx=".49" ry=".49" transform="translate(493.27 802.15) rotate(-90)" style="fill:#f9b50b;"/><rect x="647.15" y="150.39" width="1.12" height="14.35" rx=".49" ry=".49" transform="translate(490.15 805.27) rotate(-90)" style="fill:#f9b50b;"/><rect x="647.15" y="153.5" width="1.12" height="14.35" rx=".49" ry=".49" transform="translate(487.03 808.39) rotate(-90)" style="fill:#f9b50b;"/></g><path d="M753.53,30.35c5.34,0,9.71,4.37,9.71,9.71v61.93h-9.71V30.35Z" style="fill:url(#cc);"/><path d="M726.89,27.76c-6.31,0-11.48,4.69-11.48,10.41V104.57h11.48V27.76Z" style="fill:#02092d;"/><path d="M726.54,30.35c-5.34,0-9.71,4.37-9.71,9.71v61.93h9.71V30.35Z" style="fill:url(#cd);"/><polygon points="777.15 121.85 703.04 121.85 696.36 109.47 783.82 109.47 777.15 121.85" style="fill:url(#ce);"/><polygon points="772.02 121.85 708.16 121.85 702.42 103.31 777.77 103.31 772.02 121.85" style="fill:url(#cf);"/><polygon points="765.67 121.85 714.52 121.85 709.92 99.05 770.27 99.05 765.67 121.85" style="fill:url(#cg);"/><rect x="666.55" y="119.87" width="147.08" height="19.09" style="fill:url(#ch);"/><polygon points="768.85 168.87 932.03 168.87 919.79 173.77 781.09 173.77 768.85 168.87" style="fill:url(#ci);"/><polygon points="658.5 165.05 821.69 165.05 809.45 173.77 670.74 173.77 658.5 165.05" style="fill:url(#cj);"/><ellipse cx="740.09" cy="169.41" rx="3.9" ry=".79" style="fill:#ffe783;"/><ellipse cx="707.82" cy="169.41" rx="3.9" ry=".79" style="fill:#ffe783;"/><ellipse cx="772.37" cy="169.41" rx="3.9" ry=".79" style="fill:#ffe783;"/><g><path d="M800.72,166.49c-9.93,0-13.24,1.79-13.24,1.79v68.42s3.31,1.58,13.24,1.58,13.24-1.58,13.24-1.58v-68.42s-3.31-1.79-13.24-1.79Z" style="fill:url(#ck);"/><path d="M786.1,177.74h0c.05,.3,.34,.51,.64,.47,9.27-1.41,18.7-1.41,27.97,0,.31,.05,.6-.16,.64-.47h0c.05-.3-.17-.59-.48-.64-9.38-1.43-18.92-1.43-28.3,0-.31,.05-.52,.34-.48,.64Z" style="fill:#f9b50b;"/><path d="M786.1,180.87h0c.05,.3,.34,.51,.64,.47,9.27-1.41,18.7-1.41,27.97,0,.31,.05,.6-.16,.64-.47h0c.05-.3-.17-.59-.48-.64-9.38-1.43-18.92-1.43-28.3,0-.31,.05-.52,.34-.48,.64Z" style="fill:#a571ea;"/><path d="M814.08,239.88c-8.88,.95-17.83,.95-26.7,0-.49-.05-.84-.5-.79-.99l.17-1.56c.05-.49,.48-.85,.96-.8,8.66,.93,17.38,.93,26.04,0,.47-.05,.9,.31,.96,.8l.17,1.56c.05,.49-.3,.94-.79,.99Z" style="fill:url(#cl);"/><rect x="786.09" y="217.89" width="28.78" height="3.01" rx="1.31" ry="1.31" style="fill:url(#cm);"/></g><g><path d="M909.82,170.17c-7.07,0-9.43,1.79-9.43,1.79v59.46s2.36,1.58,9.43,1.58,9.43-1.58,9.43-1.58v-59.46s-2.36-1.79-9.43-1.79Z" style="fill:url(#cn);"/><path d="M899.4,181.42h0c.03,.3,.24,.51,.46,.47,6.6-1.41,13.32-1.41,19.92,0,.22,.05,.42-.16,.46-.47h0c.03-.3-.12-.59-.34-.64-6.68-1.43-13.48-1.43-20.16,0-.22,.05-.37,.34-.34,.64Z" style="fill:#f9b50b;"/><path d="M899.4,184.54h0c.03,.3,.24,.51,.46,.47,6.6-1.41,13.32-1.41,19.92,0,.22,.05,.42-.16,.46-.47h0c.03-.3-.12-.59-.34-.64-6.68-1.43-13.48-1.43-20.16,0-.22,.05-.37,.34-.34,.64Z" style="fill:#a571ea;"/><path d="M919.33,234.59c-6.32,.95-12.7,.95-19.02,0-.35-.05-.6-.5-.56-.99l.12-1.56c.04-.49,.34-.85,.68-.8,6.17,.93,12.38,.93,18.55,0,.34-.05,.64,.31,.68,.8l.12,1.56c.04,.49-.22,.94-.56,.99Z" style="fill:url(#co);"/><rect x="899.4" y="215.29" width="20.5" height="3.01" rx="1.31" ry="1.31" style="fill:url(#cp);"/></g><path d="M720.07,214.94h-1.57c-.74,0-1.34-.6-1.34-1.34v-5.16c0-.74,.6-1.34,1.34-1.34h1.57c.25,0,.45,.2,.45,.45s-.2,.45-.45,.45h-1.57c-.25,0-.45,.2-.45,.45v5.16c0,.25,.2,.45,.45,.45h1.57c.25,0,.45,.2,.45,.45s-.2,.45-.45,.45Z" style="fill:#433ab5;"/><path d="M759.93,214.94h1.57c.74,0,1.34-.6,1.34-1.34v-5.16c0-.74-.6-1.34-1.34-1.34h-1.57c-.25,0-.45,.2-.45,.45s.2,.45,.45,.45h1.57c.25,0,.45,.2,.45,.45v5.16c0,.25-.2,.45-.45,.45h-1.57c-.25,0-.45,.2-.45,.45s.2,.45,.45,.45Z" style="fill:#433ab5;"/><g><g><circle cx="849.33" cy="170.13" r=".77" style="fill:#f9b50b;"/><circle cx="856.58" cy="170.13" r=".77" style="fill:#f9b50b;"/><circle cx="863.82" cy="170.13" r=".77" style="fill:#f9b50b;"/><circle cx="871.07" cy="170.13" r=".77" style="fill:#f9b50b;"/><circle cx="878.32" cy="170.13" r=".77" style="fill:#f9b50b;"/><circle cx="885.57" cy="170.13" r=".77" style="fill:#f9b50b;"/><circle cx="892.81" cy="170.13" r=".77" style="fill:#f9b50b;"/><circle cx="900.06" cy="170.13" r=".77" style="fill:#f9b50b;"/><circle cx="907.31" cy="170.13" r=".77" style="fill:#f9b50b;"/><circle cx="914.55" cy="170.13" r=".77" style="fill:#f9b50b;"/><circle cx="921.8" cy="170.13" r=".77" style="fill:#f9b50b;"/><circle cx="929.05" cy="170.13" r=".77" style="fill:#f9b50b;"/></g><g><circle cx="820.34" cy="170.13" r=".77" style="fill:#f9b50b;"/><circle cx="827.59" cy="170.13" r=".77" style="fill:#f9b50b;"/><circle cx="834.84" cy="170.13" r=".77" style="fill:#f9b50b;"/><circle cx="842.08" cy="170.13" r=".77" style="fill:#f9b50b;"/><circle cx="849.33" cy="170.13" r=".77" style="fill:#f9b50b;"/></g></g><g><g><circle cx="740.09" cy="136.13" r=".77" style="fill:#f9b50b;"/><circle cx="747.34" cy="136.13" r=".77" style="fill:#f9b50b;"/><circle cx="754.59" cy="136.13" r=".77" style="fill:#f9b50b;"/><circle cx="761.83" cy="136.13" r=".77" style="fill:#f9b50b;"/><circle cx="769.08" cy="136.13" r=".77" style="fill:#f9b50b;"/><circle cx="776.33" cy="136.13" r=".77" style="fill:#f9b50b;"/><circle cx="783.57" cy="136.13" r=".77" style="fill:#f9b50b;"/><circle cx="790.82" cy="136.13" r=".77" style="fill:#f9b50b;"/><circle cx="798.07" cy="136.13" r=".77" style="fill:#f9b50b;"/><circle cx="805.32" cy="136.13" r=".77" style="fill:#f9b50b;"/><circle cx="812.56" cy="136.13" r=".77" style="fill:#f9b50b;"/><circle cx="819.81" cy="136.13" r=".77" style="fill:#f9b50b;"/></g><g><circle cx="660.38" cy="136.13" r=".77" style="fill:#f9b50b;"/><circle cx="667.62" cy="136.13" r=".77" style="fill:#f9b50b;"/><circle cx="674.87" cy="136.13" r=".77" style="fill:#f9b50b;"/><circle cx="682.12" cy="136.13" r=".77" style="fill:#f9b50b;"/><circle cx="689.36" cy="136.13" r=".77" style="fill:#f9b50b;"/><circle cx="696.61" cy="136.13" r=".77" style="fill:#f9b50b;"/><circle cx="703.86" cy="136.13" r=".77" style="fill:#f9b50b;"/><circle cx="711.11" cy="136.13" r=".77" style="fill:#f9b50b;"/><circle cx="718.35" cy="136.13" r=".77" style="fill:#f9b50b;"/><circle cx="725.6" cy="136.13" r=".77" style="fill:#f9b50b;"/><circle cx="732.85" cy="136.13" r=".77" style="fill:#f9b50b;"/><circle cx="740.09" cy="136.13" r=".77" style="fill:#f9b50b;"/></g></g><rect x="658.5" y="136.93" width="163.18" height="28.47" style="fill:url(#cq);"/><g><rect x="661.65" y="140.29" width="14.07" height="3.46" style="fill:#fff;"/><rect x="675.93" y="140.29" width="14.07" height="3.46" style="fill:#fff;"/><rect x="690.21" y="140.29" width="14.07" height="3.46" style="fill:#fff;"/><rect x="704.5" y="140.29" width="14.07" height="3.46" style="fill:#fff;"/><rect x="718.78" y="140.29" width="14.07" height="3.46" style="fill:#fff;"/><rect x="733.06" y="140.29" width="14.07" height="3.46" style="fill:#fff;"/><rect x="747.34" y="140.29" width="14.07" height="3.46" style="fill:#fff;"/><rect x="761.62" y="140.29" width="14.07" height="3.46" style="fill:#fff;"/><rect x="775.91" y="140.29" width="14.07" height="3.46" style="fill:#fff;"/><rect x="790.19" y="140.29" width="14.07" height="3.46" style="fill:#fff;"/><rect x="804.47" y="140.29" width="14.07" height="3.46" style="fill:#fff;"/><rect x="661.65" y="143.97" width="14.07" height="3.46" style="fill:#fff;"/><rect x="675.93" y="143.97" width="14.07" height="3.46" style="fill:#fff;"/><rect x="690.21" y="143.97" width="14.07" height="3.46" style="fill:#fff;"/><rect x="704.5" y="143.97" width="14.07" height="3.46" style="fill:#fff;"/><rect x="718.78" y="143.97" width="14.07" height="3.46" style="fill:#fff;"/><rect x="733.06" y="143.97" width="14.07" height="3.46" style="fill:#fff;"/><rect x="747.34" y="143.97" width="14.07" height="3.46" style="fill:#fff;"/><rect x="761.62" y="143.97" width="14.07" height="3.46" style="fill:#fff;"/><rect x="775.91" y="143.97" width="14.07" height="3.46" style="fill:#fff;"/><rect x="790.19" y="143.97" width="14.07" height="3.46" style="fill:#fff;"/><rect x="804.47" y="143.97" width="14.07" height="3.46" style="fill:#fff;"/><rect x="661.65" y="147.64" width="14.07" height="3.46" style="fill:#fff;"/><rect x="675.93" y="147.64" width="14.07" height="3.46" style="fill:#fff;"/><rect x="690.21" y="147.64" width="14.07" height="3.46" style="fill:#fff;"/><rect x="704.5" y="147.64" width="14.07" height="3.46" style="fill:#fff;"/><rect x="718.78" y="147.64" width="14.07" height="3.46" style="fill:#fff;"/><rect x="733.06" y="147.64" width="14.07" height="3.46" style="fill:#fff;"/><rect x="747.34" y="147.64" width="14.07" height="3.46" style="fill:#fff;"/><rect x="761.62" y="147.64" width="14.07" height="3.46" style="fill:#fff;"/><rect x="775.91" y="147.64" width="14.07" height="3.46" style="fill:#fff;"/><rect x="790.19" y="147.64" width="14.07" height="3.46" style="fill:#fff;"/><rect x="804.47" y="147.64" width="14.07" height="3.46" style="fill:#fff;"/><rect x="661.65" y="151.32" width="14.07" height="3.46" style="fill:#fff;"/><rect x="675.93" y="151.32" width="14.07" height="3.46" style="fill:#fff;"/><rect x="690.21" y="151.32" width="14.07" height="3.46" style="fill:#fff;"/><rect x="704.5" y="151.32" width="14.07" height="3.46" style="fill:#fff;"/><rect x="718.78" y="151.32" width="14.07" height="3.46" style="fill:#fff;"/><rect x="733.06" y="151.32" width="14.07" height="3.46" style="fill:#fff;"/><rect x="747.34" y="151.32" width="14.07" height="3.46" style="fill:#fff;"/><rect x="761.62" y="151.32" width="14.07" height="3.46" style="fill:#fff;"/><rect x="775.91" y="151.32" width="14.07" height="3.46" style="fill:#fff;"/><rect x="790.19" y="151.32" width="14.07" height="3.46" style="fill:#fff;"/><rect x="804.47" y="151.32" width="14.07" height="3.46" style="fill:#fff;"/><rect x="661.65" y="155" width="14.07" height="3.46" style="fill:#fff;"/><rect x="675.93" y="155" width="14.07" height="3.46" style="fill:#fff;"/><rect x="690.21" y="155" width="14.07" height="3.46" style="fill:#fff;"/><rect x="704.5" y="155" width="14.07" height="3.46" style="fill:#fff;"/><rect x="718.78" y="155" width="14.07" height="3.46" style="fill:#fff;"/><rect x="733.06" y="155" width="14.07" height="3.46" style="fill:#fff;"/><rect x="747.34" y="155" width="14.07" height="3.46" style="fill:#fff;"/><rect x="761.62" y="155" width="14.07" height="3.46" style="fill:#fff;"/><rect x="775.91" y="155" width="14.07" height="3.46" style="fill:#fff;"/><rect x="790.19" y="155" width="14.07" height="3.46" style="fill:#fff;"/><rect x="804.47" y="155" width="14.07" height="3.46" style="fill:#fff;"/></g><g><rect x="721.12" y="31.01" width="1.12" height="9.86" rx=".49" ry=".49" transform="translate(1206.58 571.66) rotate(-135)" style="fill:#f9b50b;"/><rect x="721.12" y="35.83" width="1.12" height="9.86" rx=".49" ry=".49" transform="translate(1203.17 579.89) rotate(-135)" style="fill:#f9b50b;"/><rect x="721.12" y="40.65" width="1.12" height="9.86" rx=".49" ry=".49" transform="translate(1199.76 588.12) rotate(-135)" style="fill:#f9b50b;"/><rect x="721.12" y="45.47" width="1.12" height="9.86" rx=".49" ry=".49" transform="translate(1196.35 596.34) rotate(-135)" style="fill:#f9b50b;"/><rect x="721.12" y="50.29" width="1.12" height="9.86" rx=".49" ry=".49" transform="translate(1192.94 604.57) rotate(-135)" style="fill:#f9b50b;"/><rect x="721.12" y="55.11" width="1.12" height="9.86" rx=".49" ry=".49" transform="translate(1189.54 612.8) rotate(-135)" style="fill:#f9b50b;"/><rect x="721.12" y="59.93" width="1.12" height="9.86" rx=".49" ry=".49" transform="translate(1186.13 621.02) rotate(-135)" style="fill:#f9b50b;"/><rect x="721.12" y="64.74" width="1.12" height="9.86" rx=".49" ry=".49" transform="translate(1182.72 629.25) rotate(-135)" style="fill:#f9b50b;"/><rect x="721.12" y="69.56" width="1.12" height="9.86" rx=".49" ry=".49" transform="translate(1179.31 637.48) rotate(-135)" style="fill:#f9b50b;"/><rect x="721.12" y="74.38" width="1.12" height="9.86" rx=".49" ry=".49" transform="translate(1175.91 645.7) rotate(-135)" style="fill:#f9b50b;"/><rect x="721.12" y="79.2" width="1.12" height="9.86" rx=".49" ry=".49" transform="translate(1172.5 653.93) rotate(-135)" style="fill:#f9b50b;"/><rect x="721.12" y="84.02" width="1.12" height="9.86" rx=".49" ry=".49" transform="translate(1169.09 662.16) rotate(-135)" style="fill:#f9b50b;"/><rect x="721.12" y="88.84" width="1.12" height="9.86" rx=".49" ry=".49" transform="translate(1165.68 670.39) rotate(-135)" style="fill:#f9b50b;"/></g><g><rect x="757.83" y="31.01" width="1.12" height="9.86" rx=".49" ry=".49" transform="translate(196.71 546.79) rotate(-45)" style="fill:#f9b50b;"/><rect x="757.83" y="35.83" width="1.12" height="9.86" rx=".49" ry=".49" transform="translate(193.3 548.2) rotate(-45)" style="fill:#f9b50b;"/><rect x="757.83" y="40.65" width="1.12" height="9.86" rx=".49" ry=".49" transform="translate(189.9 549.61) rotate(-45)" style="fill:#f9b50b;"/><rect x="757.83" y="45.47" width="1.12" height="9.86" rx=".49" ry=".49" transform="translate(186.49 551.02) rotate(-45)" style="fill:#f9b50b;"/><rect x="757.83" y="50.29" width="1.12" height="9.86" rx=".49" ry=".49" transform="translate(183.08 552.43) rotate(-45)" style="fill:#f9b50b;"/><rect x="757.83" y="55.11" width="1.12" height="9.86" rx=".49" ry=".49" transform="translate(179.67 553.85) rotate(-45)" style="fill:#f9b50b;"/><rect x="757.83" y="59.93" width="1.12" height="9.86" rx=".49" ry=".49" transform="translate(176.27 555.26) rotate(-45)" style="fill:#f9b50b;"/><rect x="757.83" y="64.74" width="1.12" height="9.86" rx=".49" ry=".49" transform="translate(172.86 556.67) rotate(-45)" style="fill:#f9b50b;"/><rect x="757.83" y="69.56" width="1.12" height="9.86" rx=".49" ry=".49" transform="translate(169.45 558.08) rotate(-45)" style="fill:#f9b50b;"/><rect x="757.83" y="74.38" width="1.12" height="9.86" rx=".49" ry=".49" transform="translate(166.04 559.49) rotate(-45)" style="fill:#f9b50b;"/><rect x="757.83" y="79.2" width="1.12" height="9.86" rx=".49" ry=".49" transform="translate(162.63 560.9) rotate(-45)" style="fill:#f9b50b;"/><rect x="757.83" y="84.02" width="1.12" height="9.86" rx=".49" ry=".49" transform="translate(159.23 562.31) rotate(-45)" style="fill:#f9b50b;"/><rect x="757.83" y="88.84" width="1.12" height="9.86" rx=".49" ry=".49" transform="translate(155.82 563.73) rotate(-45)" style="fill:#f9b50b;"/></g><g><path d="M677.81,166.49c9.93,0,13.24,1.79,13.24,1.79v68.42s-3.31,1.58-13.24,1.58c-9.93,0-13.24-1.58-13.24-1.58v-68.42s3.31-1.79,13.24-1.79Z" style="fill:url(#cr);"/><path d="M692.44,177.74h0c-.05,.3-.34,.51-.64,.47-9.27-1.41-18.7-1.41-27.97,0-.31,.05-.6-.16-.64-.47h0c-.05-.3,.17-.59,.48-.64,9.38-1.43,18.92-1.43,28.3,0,.31,.05,.52,.34,.48,.64Z" style="fill:#f9b50b;"/><path d="M692.44,180.87h0c-.05,.3-.34,.51-.64,.47-9.27-1.41-18.7-1.41-27.97,0-.31,.05-.6-.16-.64-.47h0c-.05-.3,.17-.59,.48-.64,9.38-1.43,18.92-1.43,28.3,0,.31,.05,.52,.34,.48,.64Z" style="fill:#a571ea;"/><path d="M664.46,239.88c8.88,.95,17.83,.95,26.7,0,.49-.05,.84-.5,.79-.99l-.17-1.56c-.05-.49-.48-.85-.96-.8-8.66,.93-17.38,.93-26.04,0-.47-.05-.9,.31-.96,.8l-.17,1.56c-.05,.49,.3,.94,.79,.99Z" style="fill:url(#cs);"/><rect x="663.67" y="217.89" width="28.78" height="3.01" rx="1.31" ry="1.31" transform="translate(1356.12 438.8) rotate(180)" style="fill:url(#ct);"/></g><g><g><circle cx="740.09" cy="166.4" r=".77" style="fill:#f9b50b;"/><circle cx="747.34" cy="166.4" r=".77" style="fill:#f9b50b;"/><circle cx="754.59" cy="166.4" r=".77" style="fill:#f9b50b;"/><circle cx="761.83" cy="166.4" r=".77" style="fill:#f9b50b;"/><circle cx="769.08" cy="166.4" r=".77" style="fill:#f9b50b;"/><circle cx="776.33" cy="166.4" r=".77" style="fill:#f9b50b;"/><circle cx="783.57" cy="166.4" r=".77" style="fill:#f9b50b;"/><circle cx="790.82" cy="166.4" r=".77" style="fill:#f9b50b;"/><circle cx="798.07" cy="166.4" r=".77" style="fill:#f9b50b;"/><circle cx="805.32" cy="166.4" r=".77" style="fill:#f9b50b;"/><circle cx="812.56" cy="166.4" r=".77" style="fill:#f9b50b;"/><circle cx="819.81" cy="166.4" r=".77" style="fill:#f9b50b;"/></g><g><circle cx="660.38" cy="166.4" r=".77" style="fill:#f9b50b;"/><circle cx="667.62" cy="166.4" r=".77" style="fill:#f9b50b;"/><circle cx="674.87" cy="166.4" r=".77" style="fill:#f9b50b;"/><circle cx="682.12" cy="166.4" r=".77" style="fill:#f9b50b;"/><circle cx="689.36" cy="166.4" r=".77" style="fill:#f9b50b;"/><circle cx="696.61" cy="166.4" r=".77" style="fill:#f9b50b;"/><circle cx="703.86" cy="166.4" r=".77" style="fill:#f9b50b;"/><circle cx="711.11" cy="166.4" r=".77" style="fill:#f9b50b;"/><circle cx="718.35" cy="166.4" r=".77" style="fill:#f9b50b;"/><circle cx="725.6" cy="166.4" r=".77" style="fill:#f9b50b;"/><circle cx="732.85" cy="166.4" r=".77" style="fill:#f9b50b;"/><circle cx="740.09" cy="166.4" r=".77" style="fill:#f9b50b;"/></g></g></g></g><g id="cu"><g><path d="M439.05,109.83c0-.41-.14-.78-.42-1.11l-10.37-12.03c-2.21-2.58-3.32-5.54-3.32-8.89s1-5.87,3.01-8.03c2.21-2.37,5.24-3.56,9.08-3.56h23.44v11.66h-18.22c-1.19,0-1.78,.57-1.78,1.71,0,.41,.15,.77,.44,1.1l10.35,12.04c2.21,2.59,3.32,5.56,3.32,8.92s-1,5.89-3.01,8.06c-2.21,2.34-5.22,3.51-9.02,3.51h-22.89v-11.72h17.67c1.14,0,1.72-.55,1.72-1.66Zm22.52-19.82c.69,0,1.04-.35,1.04-1.04v-13.81c0-.74-.35-1.1-1.05-1.1h-24.58c-4.59,0-8.17,1.41-10.75,4.23-2.3,2.5-3.44,5.63-3.44,9.39,0,4.01,1.27,7.47,3.8,10.37l10.37,12.03-.06-.18,.15-.25,.09-.18,.18-.12h-18.71c-.74,0-1.1,.37-1.1,1.11v13.81c0,.74,.37,1.1,1.11,1.1h23.97c4.55,0,8.11-1.41,10.69-4.23,2.29-2.5,3.44-5.62,3.44-9.39,0-4.01-1.27-7.47-3.8-10.37l-9.76-11.35h18.41Zm-69.77,19.82c0-.41-.14-.78-.42-1.11l-10.37-12.03c-2.21-2.58-3.32-5.54-3.32-8.89s1-5.87,3.01-8.03c2.21-2.37,5.24-3.56,9.08-3.56h23.44v11.66h-18.22c-1.19,0-1.78,.57-1.78,1.71,0,.41,.15,.77,.44,1.1l10.35,12.04c2.21,2.59,3.32,5.56,3.32,8.92s-1,5.89-3.01,8.06c-2.21,2.34-5.22,3.51-9.02,3.51h-22.89v-11.72h17.67c1.14,0,1.72-.55,1.72-1.66Zm22.52-19.82c.69,0,1.04-.35,1.04-1.04v-13.81c0-.74-.35-1.1-1.05-1.1h-24.58c-4.59,0-8.17,1.41-10.75,4.23-2.3,2.5-3.44,5.63-3.44,9.39,0,4.01,1.27,7.47,3.8,10.37l10.37,12.03-.06-.18,.15-.25,.09-.18,.18-.12h-18.71c-.74,0-1.1,.37-1.1,1.11v13.81c0,.74,.37,1.1,1.11,1.1h23.97c4.55,0,8.11-1.41,10.69-4.23,2.29-2.5,3.44-5.62,3.44-9.39,0-4.01-1.27-7.47-3.8-10.37l-9.76-11.35h18.41Zm-46.82-13.81v11.66h-28.04c-.74,0-1.1,.37-1.1,1.1v6.14c0,.7,.37,1.04,1.1,1.04h23.26v7.06h-23.26c-.74,0-1.1,.37-1.1,1.1v6.14c0,.7,.37,1.04,1.1,1.04h28.04v11.72h-42.34v-47h42.34Zm-44.49,48.05c0,.74,.37,1.1,1.1,1.1h44.49c.7,0,1.04-.37,1.04-1.1v-13.81c0-.74-.35-1.11-1.04-1.11h-28.1v-3.99h23.32c.7,0,1.04-.35,1.04-1.04v-9.2c0-.74-.35-1.11-1.04-1.11h-23.32v-3.99h28.1c.7,0,1.04-.35,1.04-1.04v-13.81c0-.74-.35-1.1-1.04-1.1h-44.49c-.74,0-1.1,.37-1.1,1.1v49.09Zm-3.19-14.91h-17.98v-34.18c0-.74-.35-1.1-1.04-1.1h-15.34c-.74,0-1.1,.37-1.1,1.1v49.09c0,.74,.37,1.1,1.1,1.1h34.36c.69,0,1.04-.37,1.04-1.1v-13.81c0-.74-.35-1.11-1.04-1.11Zm-1.1,13.87h-32.21v-47h13.19v34.24c0,.7,.37,1.04,1.1,1.04h17.92v11.72Zm-43.93-39.69c3.52,4.38,5.28,9.79,5.28,16.22s-1.8,11.8-5.4,16.22c-3.93,4.83-9.2,7.25-15.83,7.25h-27.24v-47h27.24c6.71,0,12.03,2.44,15.95,7.31Zm-44.24-9.46c-.74,0-1.1,.37-1.1,1.1v49.09c0,.74,.37,1.1,1.1,1.1h28.29c7.36,0,13.21-2.7,17.55-8.1,3.89-4.83,5.83-10.68,5.83-17.55s-1.92-12.76-5.77-17.55c-4.34-5.4-10.21-8.1-17.61-8.1h-28.29Zm15.34,37.43h8.1c3.56,0,6.36-1.25,8.41-3.74,1.8-2.21,2.7-4.91,2.7-8.1s-.92-5.83-2.76-8.04c-2.09-2.49-4.87-3.72-8.35-3.68-.37,0-1.19-.04-2.45-.12-1.27-.08-2.25-.12-2.95-.12-2.5,0-3.74,.47-3.74,1.41v21.36c0,.69,.35,1.04,1.04,1.04Zm1.1-21.42h7.06c2.74,0,4.95,.98,6.63,2.94,1.51,1.79,2.27,4.02,2.27,6.67s-.74,4.94-2.21,6.73c-1.68,1.96-3.93,2.94-6.75,2.94h-6.99v-19.27Zm-51.73,18.04h9.82c.9,0,1.25-.43,1.04-1.29l-4.91-19.33c-.16-.7-.51-1.04-1.04-1.04s-.88,.35-1.04,1.04l-4.91,19.33c-.25,.86,.1,1.29,1.04,1.29Zm4.91-16l3.45,13.85h-6.97l3.52-13.85Zm-12.96-15.91h25.91l11.75,47h-14.65c-.25-1.24-.47-2.48-.67-3.72-.45-1.86-1.02-2.79-1.72-2.79h-15.33c-.7,0-1.27,.93-1.72,2.79-.2,1.24-.43,2.48-.67,3.72h-14.65l11.75-47Zm3.75,49.15c.7,0,1.27-.92,1.72-2.76,.2-1.23,.43-2.47,.68-3.74h13.62c.25,1.27,.47,2.52,.68,3.74,.45,1.84,1.02,2.76,1.72,2.76h16.87c.9,0,1.25-.45,1.04-1.35l-12.27-49.09c-.12-.57-.47-.86-1.04-.86h-27.61c-.57,0-.92,.29-1.04,.86l-12.27,49.09c-.21,.9,.14,1.35,1.04,1.35h16.87Zm-22.21-49.15v11.66h-28.04c-.74,0-1.1,.37-1.1,1.1v6.14c0,.7,.37,1.04,1.1,1.04h23.26v7.06h-23.26c-.74,0-1.1,.37-1.1,1.1v6.14c0,.7,.37,1.04,1.1,1.04h28.04v11.72h-42.34v-47h42.34Zm-44.49,48.05c0,.74,.37,1.1,1.1,1.1h44.49c.7,0,1.04-.37,1.04-1.1v-13.81c0-.74-.35-1.11-1.04-1.11h-28.1v-3.99h23.32c.7,0,1.04-.35,1.04-1.04v-9.2c0-.74-.35-1.11-1.04-1.11h-23.32v-3.99h28.1c.7,0,1.04-.35,1.04-1.04v-13.81c0-.74-.35-1.1-1.04-1.1h-44.49c-.74,0-1.1,.37-1.1,1.1v49.09Zm-33.87-29.64h15.34c.69,0,1.04-.35,1.04-1.04v-17.37h13.19v47h-13.19v-16.75c0-.74-.35-1.11-1.04-1.11h-15.34c-.74,0-1.1,.37-1.1,1.11v16.75h-13.19v-47h13.19v17.37c0,.7,.37,1.04,1.1,1.04Zm1.04-19.45c0-.74-.35-1.1-1.04-1.1h-15.34c-.74,0-1.1,.37-1.1,1.1v49.09c0,.74,.37,1.1,1.1,1.1h15.34c.69,0,1.04-.37,1.04-1.1v-16.75h13.19v16.75c0,.74,.37,1.1,1.1,1.1h15.34c.69,0,1.04-.37,1.04-1.1v-49.09c0-.74-.35-1.1-1.04-1.1h-15.34c-.74,0-1.1,.37-1.1,1.1v17.3h-13.19v-17.3Z" style="fill:#ffef1f;"/><path d="M415.95,186.46h13.81c1.39,0,2.5-.53,3.31-1.6,.74-.9,1.1-2,1.1-3.31s-.37-2.35-1.1-3.25c-.82-1.1-1.92-1.66-3.31-1.66h-13.81c-.74,0-1.1,.37-1.1,1.1v7.67c0,.7,.37,1.04,1.1,1.04Zm1.04-7.67h12.76c1.51,0,2.27,.92,2.27,2.76s-.76,2.76-2.27,2.76h-12.76v-5.52Zm-1.04-10.12h13.81c1.39,0,2.5-.53,3.31-1.59,.74-.9,1.1-2,1.1-3.31s-.37-2.35-1.1-3.25c-.82-1.1-1.92-1.66-3.31-1.66h-13.81c-.74,0-1.1,.37-1.1,1.1v7.67c0,.7,.37,1.04,1.1,1.04Zm1.04-7.67h12.76c1.51,0,2.27,.92,2.27,2.76s-.76,2.76-2.27,2.76h-12.76v-5.52Zm-15.34-11.04h38.27c2.79,0,5,1.19,6.64,3.56,1.48,2.13,2.21,4.7,2.21,7.73s-.75,5.58-2.24,7.67c-1.66,2.29-3.89,3.44-6.71,3.44-.75,0-1.12,.37-1.12,1.1,0,.7,.37,1.04,1.1,1.04,2.78,0,5.01,1.21,6.69,3.63,1.51,2.13,2.27,4.74,2.27,7.82s-.74,5.58-2.21,7.63c-1.64,2.26-3.89,3.38-6.75,3.38h-38.17v-47Zm47.69,18.53c1.05-2.17,1.58-4.58,1.58-7.24,0-3.6-.9-6.67-2.71-9.2-2.05-2.82-4.8-4.23-8.25-4.23h-39.35c-.74,0-1.11,.37-1.11,1.1v49.09c0,.74,.37,1.1,1.11,1.1h39.26c3.52,0,6.31-1.37,8.36-4.11,1.8-2.49,2.7-5.52,2.7-9.08,0-2.66-.54-5.09-1.61-7.3-1.16-2.37-2.77-4.09-4.83-5.15,2.06-1.02,3.68-2.68,4.86-4.97Zm-59.41-11.22c3.52,4.38,5.28,9.79,5.28,16.22s-1.8,11.8-5.4,16.22c-3.93,4.83-9.2,7.25-15.83,7.25h-27.24v-47h27.24c6.71,0,12.03,2.44,15.95,7.31Zm-44.24-9.46c-.74,0-1.1,.37-1.1,1.1v49.09c0,.74,.37,1.1,1.1,1.1h28.29c7.36,0,13.21-2.7,17.55-8.1,3.89-4.83,5.83-10.68,5.83-17.55s-1.92-12.76-5.77-17.55c-4.34-5.4-10.21-8.1-17.61-8.1h-28.29Zm15.34,37.43h8.1c3.56,0,6.36-1.25,8.41-3.74,1.8-2.21,2.7-4.91,2.7-8.1s-.92-5.83-2.76-8.04c-2.09-2.49-4.87-3.72-8.35-3.68-.37,0-1.19-.04-2.45-.12-1.27-.08-2.25-.12-2.95-.12-2.5,0-3.74,.47-3.74,1.41v21.36c0,.69,.35,1.04,1.04,1.04Zm1.1-21.42h7.06c2.74,0,4.95,.98,6.63,2.94,1.51,1.79,2.27,4.02,2.27,6.67s-.74,4.94-2.21,6.73c-1.68,1.96-3.93,2.94-6.75,2.94h-6.99v-19.27Zm-52.53-13.87v11.66h-28.04c-.74,0-1.1,.37-1.1,1.1v6.14c0,.7,.37,1.04,1.1,1.04h23.26v7.06h-23.26c-.74,0-1.1,.37-1.1,1.1v6.14c0,.7,.37,1.04,1.1,1.04h28.04v11.72h-42.34v-47h42.34Zm-44.49,48.05c0,.74,.37,1.1,1.1,1.1h44.49c.7,0,1.04-.37,1.04-1.1v-13.81c0-.74-.35-1.11-1.04-1.11h-28.1v-3.99h23.32c.7,0,1.04-.35,1.04-1.04v-9.2c0-.74-.35-1.11-1.04-1.11h-23.32v-3.99h28.1c.7,0,1.04-.35,1.04-1.04v-13.81c0-.74-.35-1.1-1.04-1.1h-44.49c-.74,0-1.1,.37-1.1,1.1v49.09Zm-18.53,1.1h15.34c.69,0,1.04-.37,1.04-1.1v-49.09c0-.74-.35-1.1-1.04-1.1h-15.34c-.74,0-1.1,.37-1.1,1.1v49.09c0,.74,.37,1.1,1.1,1.1Zm1.04-49.15h13.19v47h-13.19v-47Zm-40.63-2.15h-16.87c-.9,0-1.25,.45-1.04,1.35l12.27,49.09c.12,.57,.47,.86,1.04,.86h27.61c.57,0,.92-.29,1.04-.86l12.27-49.09c.2-.9-.14-1.35-1.04-1.35h-16.86c-.57,0-.92,.29-1.04,.86l-8.17,32.36-8.17-32.36c-.12-.57-.47-.86-1.04-.86Zm8.17,37.86c.16,.7,.51,1.04,1.04,1.04s.88-.35,1.04-1.04l9.02-35.71h14.65l-11.75,47h-25.91l-11.75-47h14.64l9.02,35.71Zm-62.99-20.92c-2.39,2.45-3.59,5.36-3.59,8.71s1.2,6.21,3.59,8.68c2.39,2.48,5.23,3.71,8.5,3.71s6.22-1.24,8.59-3.71c2.37-2.47,3.56-5.37,3.56-8.68s-1.19-6.26-3.56-8.71c-2.37-2.45-5.24-3.68-8.59-3.68s-6.11,1.23-8.5,3.68Zm15.56,1.5c1.96,2.02,2.95,4.43,2.95,7.21s-.98,5.13-2.95,7.18c-1.96,2.05-4.32,3.07-7.06,3.07s-4.98-1.02-6.96-3.07c-1.98-2.05-2.98-4.44-2.98-7.18s.99-5.18,2.98-7.21c1.98-2.02,4.3-3.04,6.96-3.04s5.09,1.01,7.06,3.04Zm-26.39,24.87c-5.2-4.42-7.79-10.3-7.79-17.63s2.59-13.14,7.76-17.79c5.17-4.65,11.65-6.97,19.42-6.97s13.87,2.54,19.27,7.62c5.24,4.92,7.85,10.63,7.85,17.14s-2.62,12.51-7.85,17.14c-5.24,4.63-11.66,6.94-19.27,6.94s-14.36-2.15-19.39-6.45Zm40.13,1.05c5.69-5.03,8.53-11.27,8.53-18.72s-2.87-13.38-8.62-18.78c-5.75-5.4-12.63-8.1-20.65-8.1s-15.24,2.5-20.8,7.49c-5.69,5.07-8.53,11.54-8.53,19.39s2.84,14.4,8.53,19.27c5.48,4.66,12.41,7,20.8,7s15.05-2.52,20.74-7.55Zm-68.17,5.83c0,.74,.37,1.1,1.1,1.1h13.81c.7,0,1.04-.37,1.04-1.1v-49.09c0-.74-.35-1.1-1.04-1.1h-19.99c-.57,0-.92,.28-1.05,.85l-5.08,20.25-5.08-20.25c-.12-.56-.45-.85-.98-.85h-19.99c-.74,0-1.11,.37-1.11,1.1v49.09c0,.74,.37,1.1,1.1,1.1h13.81c.7,0,1.04-.37,1.04-1.1v-16.63l3.99,16.87c.16,.57,.53,.86,1.1,.86h12.27c.53,0,.88-.29,1.04-.86l3.99-16.87v16.63Zm-5.89-1.04h-10.62l-5.9-24.97c-.16-.66-.53-.98-1.1-.98-.69,0-1.04,.41-1.04,1.23v24.73h-11.66v-47h18.04l5.95,23.75c.16,.7,.51,1.04,1.04,1.04,.49,0,.82-.35,.98-1.04l5.95-23.75h18.04v47h-11.66v-24.73c0-.82-.35-1.23-1.04-1.23-.57,0-.93,.33-1.1,.98l-5.9,24.97Z" style="fill:#ffef1f;"/></g></g></svg>